<?xml version="1.0" encoding="UTF-8" standalone="no"?>
<!-- Created with Inkscape (http://www.inkscape.org/) -->

<svg
   width="148.16667mm"
   height="111.125mm"
   viewBox="0 0 148.16667 111.125"
   version="1.1"
   id="svg5"
   xml:space="preserve"
   inkscape:version="1.2.2 (b0a84865, 2022-12-01)"
   sodipodi:docname="rd_comp_h.svg"
   xmlns:inkscape="http://www.inkscape.org/namespaces/inkscape"
   xmlns:sodipodi="http://sodipodi.sourceforge.net/DTD/sodipodi-0.dtd"
   xmlns="http://www.w3.org/2000/svg"
   xmlns:svg="http://www.w3.org/2000/svg"><sodipodi:namedview
     id="namedview7"
     pagecolor="#ffffff"
     bordercolor="#000000"
     borderopacity="0.25"
     inkscape:showpageshadow="2"
     inkscape:pageopacity="0.0"
     inkscape:pagecheckerboard="0"
     inkscape:deskcolor="#d1d1d1"
     inkscape:document-units="mm"
     showgrid="false"
     inkscape:zoom="0.78127806"
     inkscape:cx="279.66996"
     inkscape:cy="210.55244"
     inkscape:window-width="1390"
     inkscape:window-height="1027"
     inkscape:window-x="2145"
     inkscape:window-y="107"
     inkscape:window-maximized="0"
     inkscape:current-layer="layer1" /><defs
     id="defs2"><clipPath
       clipPathUnits="userSpaceOnUse"
       id="clipPath1"><path
         d="M 0,0 H 560 V 420 H 0 Z"
         id="path1544" /></clipPath></defs><g
     inkscape:label="Layer 1"
     inkscape:groupmode="layer"
     id="layer1"
     transform="translate(-20.231947,-93.276155)"><g
       style="font-style:normal;font-weight:normal;font-size:12px;font-family:Dialog;color-interpolation:auto;fill:#000000;fill-opacity:1;stroke:#000000;stroke-width:1;stroke-linecap:square;stroke-linejoin:miter;stroke-miterlimit:10;stroke-dasharray:none;stroke-dashoffset:0;stroke-opacity:1;color-rendering:auto;image-rendering:auto;shape-rendering:auto;text-rendering:auto"
       id="g2252"
       transform="matrix(0.26458333,0,0,0.26458333,20.231947,93.276155)"><g
         id="g2008"><defs
           id="defs1"><clipPath
             clipPathUnits="userSpaceOnUse"
             id="clipPath2018"><path
               d="M 0,0 H 560 V 420 H 0 Z"
               id="path2016" /></clipPath></defs><g
           style="fill:#ffffff;stroke:#ffffff"
           id="g1550"><rect
             x="0"
             y="0"
             width="560"
             style="stroke:none"
             height="420"
             clip-path="url(#clipPath1)"
             id="rect1548" /></g><g
           style="color-interpolation:sRGB;fill:#ffffff;stroke:#ffffff;color-rendering:optimizeSpeed;image-rendering:optimizeSpeed;shape-rendering:crispEdges;text-rendering:optimizeSpeed"
           id="g1556"><rect
             x="0"
             width="560"
             height="420"
             y="0"
             style="stroke:none"
             id="rect1552" /><path
             style="stroke:none"
             d="M 73,356 H 507 V 31 H 73 Z"
             id="path1554" /></g><g
           style="color-interpolation:linearRGB;fill:#1a1a1a;fill-opacity:0.251;stroke:#1a1a1a;stroke-width:0.5;stroke-linecap:butt;stroke-linejoin:bevel;stroke-miterlimit:1;stroke-dasharray:1, 3;stroke-opacity:0.251;color-rendering:optimizeQuality;image-rendering:optimizeQuality;text-rendering:geometricPrecision"
           id="g1590"><line
             y2="31"
             style="fill:none"
             x1="73"
             x2="73"
             y1="356"
             id="line1558" /><line
             y2="31"
             style="fill:none"
             x1="117.9823"
             x2="117.9823"
             y1="356"
             id="line1560" /><line
             y2="31"
             style="fill:none"
             x1="149.8978"
             x2="149.8978"
             y1="356"
             id="line1562" /><line
             y2="31"
             style="fill:none"
             x1="174.65331"
             x2="174.65331"
             y1="356"
             id="line1564" /><line
             y2="31"
             style="fill:none"
             x1="194.8801"
             x2="194.8801"
             y1="356"
             id="line1566" /><line
             y2="31"
             style="fill:none"
             x1="211.9816"
             x2="211.9816"
             y1="356"
             id="line1568" /><line
             y2="31"
             style="fill:none"
             x1="226.79559"
             x2="226.79559"
             y1="356"
             id="line1570" /><line
             y2="31"
             style="fill:none"
             x1="239.8624"
             x2="239.8624"
             y1="356"
             id="line1572" /><line
             y2="31"
             style="fill:none"
             x1="328.44891"
             x2="328.44891"
             y1="356"
             id="line1574" /><line
             y2="31"
             style="fill:none"
             x1="373.43121"
             x2="373.43121"
             y1="356"
             id="line1576" /><line
             y2="31"
             style="fill:none"
             x1="405.34671"
             x2="405.34671"
             y1="356"
             id="line1578" /><line
             y2="31"
             style="fill:none"
             x1="430.1022"
             x2="430.1022"
             y1="356"
             id="line1580" /><line
             y2="31"
             style="fill:none"
             x1="450.32901"
             x2="450.32901"
             y1="356"
             id="line1582" /><line
             y2="31"
             style="fill:none"
             x1="467.43051"
             x2="467.43051"
             y1="356"
             id="line1584" /><line
             y2="31"
             style="fill:none"
             x1="482.24438"
             x2="482.24438"
             y1="356"
             id="line1586" /><line
             y2="31"
             style="fill:none"
             x1="495.31131"
             x2="495.31131"
             y1="356"
             id="line1588" /></g><g
           style="color-interpolation:linearRGB;fill:#262626;fill-opacity:0.149;stroke:#262626;stroke-width:0.5;stroke-linecap:butt;stroke-linejoin:round;stroke-opacity:0.149;color-rendering:optimizeQuality;image-rendering:optimizeQuality;text-rendering:geometricPrecision"
           id="g1694"><line
             y2="31"
             style="fill:none"
             x1="251.5511"
             x2="251.5511"
             y1="356"
             id="line1592" /><line
             y2="31"
             style="fill:none"
             x1="507"
             x2="507"
             y1="356"
             id="line1594" /><line
             y2="356"
             style="fill:none"
             x1="507"
             x2="73"
             y1="356"
             id="line1596" /><line
             y2="301.83331"
             style="fill:none"
             x1="507"
             x2="73"
             y1="301.83331"
             id="line1598" /><line
             y2="247.6667"
             style="fill:none"
             x1="507"
             x2="73"
             y1="247.6667"
             id="line1600" /><line
             y2="193.5"
             style="fill:none"
             x1="507"
             x2="73"
             y1="193.5"
             id="line1602" /><line
             y2="139.3333"
             style="fill:none"
             x1="507"
             x2="73"
             y1="139.3333"
             id="line1604" /><line
             y2="85.166702"
             style="fill:none"
             x1="507"
             x2="73"
             y1="85.166702"
             id="line1606" /><line
             y2="31"
             style="fill:none"
             x1="507"
             x2="73"
             y1="31"
             id="line1608" /><line
             x1="73"
             x2="507"
             y1="356"
             style="fill:none;fill-opacity:1;stroke-linecap:square;stroke-opacity:1"
             y2="356"
             id="line1610" /><line
             x1="73"
             x2="507"
             y1="31"
             style="fill:none;fill-opacity:1;stroke-linecap:square;stroke-opacity:1"
             y2="31"
             id="line1612" /><line
             x1="251.5511"
             x2="251.5511"
             y1="356"
             style="fill:none;fill-opacity:1;stroke-linecap:square;stroke-opacity:1"
             y2="351.66"
             id="line1614" /><line
             x1="507"
             x2="507"
             y1="356"
             style="fill:none;fill-opacity:1;stroke-linecap:square;stroke-opacity:1"
             y2="351.66"
             id="line1616" /><line
             x1="251.5511"
             x2="251.5511"
             y1="31"
             style="fill:none;fill-opacity:1;stroke-linecap:square;stroke-opacity:1"
             y2="35.34"
             id="line1618" /><line
             x1="507"
             x2="507"
             y1="31"
             style="fill:none;fill-opacity:1;stroke-linecap:square;stroke-opacity:1"
             y2="35.34"
             id="line1620" /><line
             x1="73"
             x2="73"
             y1="356"
             style="fill:none;fill-opacity:1;stroke-linecap:square;stroke-opacity:1"
             y2="353.82999"
             id="line1622" /><line
             x1="117.9823"
             x2="117.9823"
             y1="356"
             style="fill:none;fill-opacity:1;stroke-linecap:square;stroke-opacity:1"
             y2="353.82999"
             id="line1624" /><line
             x1="149.8978"
             x2="149.8978"
             y1="356"
             style="fill:none;fill-opacity:1;stroke-linecap:square;stroke-opacity:1"
             y2="353.82999"
             id="line1626" /><line
             x1="174.65331"
             x2="174.65331"
             y1="356"
             style="fill:none;fill-opacity:1;stroke-linecap:square;stroke-opacity:1"
             y2="353.82999"
             id="line1628" /><line
             x1="194.8801"
             x2="194.8801"
             y1="356"
             style="fill:none;fill-opacity:1;stroke-linecap:square;stroke-opacity:1"
             y2="353.82999"
             id="line1630" /><line
             x1="211.9816"
             x2="211.9816"
             y1="356"
             style="fill:none;fill-opacity:1;stroke-linecap:square;stroke-opacity:1"
             y2="353.82999"
             id="line1632" /><line
             x1="226.79559"
             x2="226.79559"
             y1="356"
             style="fill:none;fill-opacity:1;stroke-linecap:square;stroke-opacity:1"
             y2="353.82999"
             id="line1634" /><line
             x1="239.8624"
             x2="239.8624"
             y1="356"
             style="fill:none;fill-opacity:1;stroke-linecap:square;stroke-opacity:1"
             y2="353.82999"
             id="line1636" /><line
             x1="251.5511"
             x2="251.5511"
             y1="356"
             style="fill:none;fill-opacity:1;stroke-linecap:square;stroke-opacity:1"
             y2="353.82999"
             id="line1638" /><line
             x1="328.44891"
             x2="328.44891"
             y1="356"
             style="fill:none;fill-opacity:1;stroke-linecap:square;stroke-opacity:1"
             y2="353.82999"
             id="line1640" /><line
             x1="373.43121"
             x2="373.43121"
             y1="356"
             style="fill:none;fill-opacity:1;stroke-linecap:square;stroke-opacity:1"
             y2="353.82999"
             id="line1642" /><line
             x1="405.34671"
             x2="405.34671"
             y1="356"
             style="fill:none;fill-opacity:1;stroke-linecap:square;stroke-opacity:1"
             y2="353.82999"
             id="line1644" /><line
             x1="430.1022"
             x2="430.1022"
             y1="356"
             style="fill:none;fill-opacity:1;stroke-linecap:square;stroke-opacity:1"
             y2="353.82999"
             id="line1646" /><line
             x1="450.32901"
             x2="450.32901"
             y1="356"
             style="fill:none;fill-opacity:1;stroke-linecap:square;stroke-opacity:1"
             y2="353.82999"
             id="line1648" /><line
             x1="467.43051"
             x2="467.43051"
             y1="356"
             style="fill:none;fill-opacity:1;stroke-linecap:square;stroke-opacity:1"
             y2="353.82999"
             id="line1650" /><line
             x1="482.24438"
             x2="482.24438"
             y1="356"
             style="fill:none;fill-opacity:1;stroke-linecap:square;stroke-opacity:1"
             y2="353.82999"
             id="line1652" /><line
             x1="495.31131"
             x2="495.31131"
             y1="356"
             style="fill:none;fill-opacity:1;stroke-linecap:square;stroke-opacity:1"
             y2="353.82999"
             id="line1654" /><line
             x1="507"
             x2="507"
             y1="356"
             style="fill:none;fill-opacity:1;stroke-linecap:square;stroke-opacity:1"
             y2="353.82999"
             id="line1656" /><line
             x1="73"
             x2="73"
             y1="31"
             style="fill:none;fill-opacity:1;stroke-linecap:square;stroke-opacity:1"
             y2="33.169998"
             id="line1658" /><line
             x1="117.9823"
             x2="117.9823"
             y1="31"
             style="fill:none;fill-opacity:1;stroke-linecap:square;stroke-opacity:1"
             y2="33.169998"
             id="line1660" /><line
             x1="149.8978"
             x2="149.8978"
             y1="31"
             style="fill:none;fill-opacity:1;stroke-linecap:square;stroke-opacity:1"
             y2="33.169998"
             id="line1662" /><line
             x1="174.65331"
             x2="174.65331"
             y1="31"
             style="fill:none;fill-opacity:1;stroke-linecap:square;stroke-opacity:1"
             y2="33.169998"
             id="line1664" /><line
             x1="194.8801"
             x2="194.8801"
             y1="31"
             style="fill:none;fill-opacity:1;stroke-linecap:square;stroke-opacity:1"
             y2="33.169998"
             id="line1666" /><line
             x1="211.9816"
             x2="211.9816"
             y1="31"
             style="fill:none;fill-opacity:1;stroke-linecap:square;stroke-opacity:1"
             y2="33.169998"
             id="line1668" /><line
             x1="226.79559"
             x2="226.79559"
             y1="31"
             style="fill:none;fill-opacity:1;stroke-linecap:square;stroke-opacity:1"
             y2="33.169998"
             id="line1670" /><line
             x1="239.8624"
             x2="239.8624"
             y1="31"
             style="fill:none;fill-opacity:1;stroke-linecap:square;stroke-opacity:1"
             y2="33.169998"
             id="line1672" /><line
             x1="251.5511"
             x2="251.5511"
             y1="31"
             style="fill:none;fill-opacity:1;stroke-linecap:square;stroke-opacity:1"
             y2="33.169998"
             id="line1674" /><line
             x1="328.44891"
             x2="328.44891"
             y1="31"
             style="fill:none;fill-opacity:1;stroke-linecap:square;stroke-opacity:1"
             y2="33.169998"
             id="line1676" /><line
             x1="373.43121"
             x2="373.43121"
             y1="31"
             style="fill:none;fill-opacity:1;stroke-linecap:square;stroke-opacity:1"
             y2="33.169998"
             id="line1678" /><line
             x1="405.34671"
             x2="405.34671"
             y1="31"
             style="fill:none;fill-opacity:1;stroke-linecap:square;stroke-opacity:1"
             y2="33.169998"
             id="line1680" /><line
             x1="430.1022"
             x2="430.1022"
             y1="31"
             style="fill:none;fill-opacity:1;stroke-linecap:square;stroke-opacity:1"
             y2="33.169998"
             id="line1682" /><line
             x1="450.32901"
             x2="450.32901"
             y1="31"
             style="fill:none;fill-opacity:1;stroke-linecap:square;stroke-opacity:1"
             y2="33.169998"
             id="line1684" /><line
             x1="467.43051"
             x2="467.43051"
             y1="31"
             style="fill:none;fill-opacity:1;stroke-linecap:square;stroke-opacity:1"
             y2="33.169998"
             id="line1686" /><line
             x1="482.24438"
             x2="482.24438"
             y1="31"
             style="fill:none;fill-opacity:1;stroke-linecap:square;stroke-opacity:1"
             y2="33.169998"
             id="line1688" /><line
             x1="495.31131"
             x2="495.31131"
             y1="31"
             style="fill:none;fill-opacity:1;stroke-linecap:square;stroke-opacity:1"
             y2="33.169998"
             id="line1690" /><line
             x1="507"
             x2="507"
             y1="31"
             style="fill:none;fill-opacity:1;stroke-linecap:square;stroke-opacity:1"
             y2="33.169998"
             id="line1692" /></g><g
           transform="translate(232,388)"
           style="font-size:20px;font-family:'Helvetica Neue';color-interpolation:linearRGB;fill:#262626;stroke:#262626;color-rendering:optimizeQuality;image-rendering:optimizeQuality;text-rendering:geometricPrecision"
           id="g1698"><path
             style="stroke:none"
             d="m 7.12,0 v -14.18 h -1.3 q -0.14,0.8 -0.52,1.32 -0.38,0.52 -0.93,0.82 -0.55,0.3 -1.23,0.41 -0.68,0.11 -1.4,0.11 v 1.36 H 5.42 V 0 Z m 6.64,-6.98 q 0,-0.52 0.01,-1.15 0.01,-0.63 0.1,-1.26 0.09,-0.63 0.26,-1.23 0.17,-0.6 0.5,-1.05 0.33,-0.45 0.83,-0.73 0.5,-0.28 1.22,-0.28 0.72,0 1.22,0.28 0.5,0.28 0.83,0.73 0.33,0.45 0.5,1.05 0.17,0.6 0.26,1.23 0.09,0.63 0.1,1.26 0.01,0.63 0.01,1.15 0,0.8 -0.05,1.79 -0.05,0.99 -0.32,1.86 -0.27,0.87 -0.87,1.47 -0.6,0.6 -1.68,0.6 -1.08,0 -1.68,-0.6 -0.6,-0.6 -0.87,-1.47 -0.27,-0.87 -0.32,-1.86 -0.05,-0.99 -0.05,-1.79 z m -1.8,0.02 q 0,0.78 0.04,1.62 0.04,0.84 0.2,1.64 0.16,0.8 0.46,1.51 0.3,0.71 0.82,1.25 0.52,0.54 1.31,0.85 0.79,0.31 1.89,0.31 1.12,0 1.9,-0.31 0.78,-0.31 1.3,-0.85 0.52,-0.54 0.82,-1.25 0.3,-0.71 0.46,-1.51 0.16,-0.8 0.2,-1.64 0.04,-0.84 0.04,-1.62 0,-0.78 -0.04,-1.62 -0.04,-0.84 -0.2,-1.64 -0.16,-0.8 -0.46,-1.52 -0.3,-0.72 -0.82,-1.26 -0.52,-0.54 -1.31,-0.86 -0.79,-0.32 -1.89,-0.32 -1.1,0 -1.89,0.32 -0.79,0.32 -1.31,0.86 -0.52,0.54 -0.82,1.26 -0.3,0.72 -0.46,1.52 -0.16,0.8 -0.2,1.64 -0.04,0.84 -0.04,1.62 z"
             id="path1696" /></g><g
           transform="translate(255,378)"
           style="font-size:16px;font-family:'Helvetica Neue';color-interpolation:linearRGB;fill:#262626;stroke:#262626;color-rendering:optimizeQuality;image-rendering:optimizeQuality;text-rendering:geometricPrecision"
           id="g1702"><path
             style="stroke:none"
             d="m 0.8,-5.088 v 1.28 h 4.624 v -1.28 z M 11.92,0 v -11.344 h -1.04 q -0.112,0.64 -0.416,1.056 -0.304,0.416 -0.744,0.656 -0.44,0.24 -0.984,0.328 -0.544,0.088 -1.12,0.088 v 1.088 H 10.56 V 0 Z"
             id="path1700" /></g><g
           transform="translate(491,388)"
           style="font-size:20px;font-family:'Helvetica Neue';color-interpolation:linearRGB;fill:#262626;stroke:#262626;color-rendering:optimizeQuality;image-rendering:optimizeQuality;text-rendering:geometricPrecision"
           id="g1706"><path
             style="stroke:none"
             d="m 7.12,0 v -14.18 h -1.3 q -0.14,0.8 -0.52,1.32 -0.38,0.52 -0.93,0.82 -0.55,0.3 -1.23,0.41 -0.68,0.11 -1.4,0.11 v 1.36 H 5.42 V 0 Z m 6.64,-6.98 q 0,-0.52 0.01,-1.15 0.01,-0.63 0.1,-1.26 0.09,-0.63 0.26,-1.23 0.17,-0.6 0.5,-1.05 0.33,-0.45 0.83,-0.73 0.5,-0.28 1.22,-0.28 0.72,0 1.22,0.28 0.5,0.28 0.83,0.73 0.33,0.45 0.5,1.05 0.17,0.6 0.26,1.23 0.09,0.63 0.1,1.26 0.01,0.63 0.01,1.15 0,0.8 -0.05,1.79 -0.05,0.99 -0.32,1.86 -0.27,0.87 -0.87,1.47 -0.6,0.6 -1.68,0.6 -1.08,0 -1.68,-0.6 -0.6,-0.6 -0.87,-1.47 -0.27,-0.87 -0.32,-1.86 -0.05,-0.99 -0.05,-1.79 z m -1.8,0.02 q 0,0.78 0.04,1.62 0.04,0.84 0.2,1.64 0.16,0.8 0.46,1.51 0.3,0.71 0.82,1.25 0.52,0.54 1.31,0.85 0.79,0.31 1.89,0.31 1.12,0 1.9,-0.31 0.78,-0.31 1.3,-0.85 0.52,-0.54 0.82,-1.25 0.3,-0.71 0.46,-1.51 0.16,-0.8 0.2,-1.64 0.04,-0.84 0.04,-1.62 0,-0.78 -0.04,-1.62 -0.04,-0.84 -0.2,-1.64 -0.16,-0.8 -0.46,-1.52 -0.3,-0.72 -0.82,-1.26 -0.52,-0.54 -1.31,-0.86 -0.79,-0.32 -1.89,-0.32 -1.1,0 -1.89,0.32 -0.79,0.32 -1.31,0.86 -0.52,0.54 -0.82,1.26 -0.3,0.72 -0.46,1.52 -0.16,0.8 -0.2,1.64 -0.04,0.84 -0.04,1.62 z"
             id="path1704" /></g><g
           transform="translate(514,378)"
           style="font-size:16px;font-family:'Helvetica Neue';color-interpolation:linearRGB;fill:#262626;stroke:#262626;color-rendering:optimizeQuality;image-rendering:optimizeQuality;text-rendering:geometricPrecision"
           id="g1710"><path
             style="stroke:none"
             d="m 2.112,-5.584 q 0,-0.416 0.008,-0.92 0.008,-0.504 0.08,-1.008 0.072,-0.504 0.208,-0.984 0.136,-0.48 0.4,-0.84 0.264,-0.36 0.664,-0.584 0.4,-0.224 0.976,-0.224 0.576,0 0.976,0.224 0.4,0.224 0.664,0.584 0.264,0.36 0.4,0.84 0.136,0.48 0.208,0.984 0.072,0.504 0.08,1.008 0.008,0.504 0.008,0.92 0,0.64 -0.04,1.432 -0.04,0.792 -0.256,1.488 -0.216,0.696 -0.696,1.176 -0.48,0.48 -1.344,0.48 -0.864,0 -1.344,-0.48 Q 2.624,-1.968 2.408,-2.664 2.192,-3.36 2.152,-4.152 2.112,-4.944 2.112,-5.584 Z m -1.44,0.016 q 0,0.624 0.032,1.296 0.032,0.672 0.16,1.312 0.128,0.64 0.368,1.208 0.24,0.568 0.656,1 0.416,0.432 1.048,0.68 0.632,0.248 1.512,0.248 0.896,0 1.52,-0.248 0.624,-0.248 1.04,-0.68 0.416,-0.432 0.656,-1 0.24,-0.568 0.368,-1.208 0.128,-0.64 0.16,-1.312 0.032,-0.672 0.032,-1.296 0,-0.624 -0.032,-1.296 Q 8.16,-7.536 8.032,-8.176 7.904,-8.816 7.664,-9.392 7.424,-9.968 7.008,-10.4 6.592,-10.832 5.96,-11.088 q -0.632,-0.256 -1.512,-0.256 -0.88,0 -1.512,0.256 -0.632,0.256 -1.048,0.688 -0.416,0.432 -0.656,1.008 -0.24,0.576 -0.368,1.216 -0.128,0.64 -0.16,1.312 -0.032,0.672 -0.032,1.296 z"
             id="path1708" /></g><g
           transform="translate(290.0002,394)"
           style="font-size:22px;font-family:'Helvetica Neue';color-interpolation:linearRGB;fill:#262626;stroke:#262626;color-rendering:optimizeQuality;image-rendering:optimizeQuality;text-rendering:geometricPrecision"
           id="g1714"><path
             style="stroke:none"
             d="M -57.592,5.292 V 21 h 1.87 v -6.424 q 0,-0.77 0.209,-1.419 0.209,-0.649 0.627,-1.133 0.418,-0.484 1.045,-0.748 0.627,-0.264 1.485,-0.264 1.078,0 1.694,0.616 0.616,0.616 0.616,1.672 V 21 h 1.87 v -7.48 q 0,-0.924 -0.187,-1.683 -0.187,-0.759 -0.649,-1.309 -0.462,-0.55 -1.21,-0.858 -0.748,-0.308 -1.87,-0.308 -0.506,0 -1.045,0.11 -0.539,0.11 -1.034,0.341 -0.495,0.231 -0.891,0.594 -0.396,0.363 -0.616,0.891 h -0.044 V 5.292 Z m 21.428,20.042 h 1.43 q -1.562,-2.53 -2.233,-5.016 -0.671,-2.486 -0.671,-5.258 0,-2.706 0.66,-5.17 0.66,-2.464 2.244,-4.972 h -1.43 q -1.716,2.266 -2.585,4.906 -0.869,2.64 -0.869,5.236 0,1.452 0.242,2.772 0.242,1.32 0.693,2.574 0.451,1.254 1.089,2.475 0.638,1.221 1.43,2.453 z M -33.436,5.292 V 21 h 1.87 V 5.292 Z m 6.138,10.032 q 0,-1.034 0.275,-1.837 0.275,-0.803 0.759,-1.353 0.484,-0.55 1.133,-0.836 0.649,-0.286 1.375,-0.286 0.726,0 1.375,0.286 0.649,0.286 1.133,0.836 0.484,0.55 0.759,1.353 0.275,0.803 0.275,1.837 0,1.034 -0.275,1.837 -0.275,0.803 -0.759,1.342 -0.484,0.539 -1.133,0.825 -0.649,0.286 -1.375,0.286 -0.726,0 -1.375,-0.286 -0.649,-0.286 -1.133,-0.825 -0.484,-0.539 -0.759,-1.342 -0.275,-0.803 -0.275,-1.837 z m -1.98,0 q 0,1.254 0.352,2.332 0.352,1.078 1.056,1.881 0.704,0.803 1.738,1.254 1.034,0.451 2.376,0.451 1.364,0 2.387,-0.451 1.023,-0.451 1.727,-1.254 0.704,-0.803 1.056,-1.881 0.352,-1.078 0.352,-2.332 0,-1.254 -0.352,-2.343 -0.352,-1.089 -1.056,-1.892 -0.704,-0.803 -1.727,-1.265 -1.023,-0.462 -2.387,-0.462 -1.342,0 -2.376,0.462 -1.034,0.462 -1.738,1.265 -0.704,0.803 -1.056,1.892 -0.352,1.089 -0.352,2.343 z m 23.056,4.708 V 9.626 h -1.76 v 1.628 h -0.022 q -0.506,-0.946 -1.408,-1.419 -0.902,-0.473 -1.98,-0.473 -1.474,0 -2.486,0.561 -1.012,0.561 -1.628,1.43 -0.616,0.869 -0.88,1.936 -0.264,1.067 -0.264,2.079 0,1.166 0.319,2.211 0.319,1.045 0.957,1.826 0.638,0.781 1.584,1.243 0.946,0.462 2.222,0.462 1.1,0 2.079,-0.495 0.979,-0.495 1.463,-1.551 h 0.044 v 0.748 q 0,0.946 -0.187,1.738 -0.187,0.792 -0.605,1.353 -0.418,0.561 -1.056,0.88 -0.638,0.319 -1.562,0.319 -0.462,0 -0.968,-0.099 -0.506,-0.099 -0.935,-0.319 -0.429,-0.22 -0.726,-0.572 -0.297,-0.352 -0.319,-0.858 h -1.87 q 0.044,0.924 0.484,1.562 0.44,0.638 1.111,1.034 0.671,0.396 1.496,0.572 0.825,0.176 1.617,0.176 2.728,0 4.004,-1.386 1.276,-1.386 1.276,-4.18 z m -5.236,-0.55 q -0.924,0 -1.54,-0.385 -0.616,-0.385 -0.99,-1.012 -0.374,-0.627 -0.528,-1.397 -0.154,-0.77 -0.154,-1.54 0,-0.814 0.187,-1.562 0.187,-0.748 0.594,-1.32 0.407,-0.572 1.045,-0.913 0.638,-0.341 1.54,-0.341 0.88,0 1.496,0.352 0.616,0.352 1.001,0.935 0.385,0.583 0.561,1.309 0.176,0.726 0.176,1.474 0,0.792 -0.187,1.584 -0.187,0.792 -0.583,1.419 -0.396,0.627 -1.045,1.012 -0.649,0.385 -1.573,0.385 z M 3.854,17.414 h -1.87 q 0.044,1.056 0.44,1.793 0.396,0.737 1.056,1.188 0.66,0.451 1.518,0.649 0.858,0.198 1.804,0.198 0.858,0 1.727,-0.165 0.869,-0.165 1.562,-0.583 0.693,-0.418 1.122,-1.1 0.429,-0.682 0.429,-1.716 0,-0.814 -0.319,-1.364 -0.319,-0.55 -0.836,-0.913 Q 9.97,15.038 9.299,14.818 8.628,14.598 7.924,14.444 7.264,14.29 6.604,14.147 5.944,14.004 5.416,13.795 4.888,13.586 4.547,13.267 4.206,12.948 4.206,12.464 q 0,-0.44 0.22,-0.715 0.22,-0.275 0.572,-0.44 0.352,-0.165 0.781,-0.231 0.429,-0.066 0.847,-0.066 0.462,0 0.913,0.099 0.451,0.099 0.825,0.319 0.374,0.22 0.616,0.583 0.242,0.363 0.286,0.913 h 1.87 Q 11.07,11.892 10.696,11.199 10.322,10.506 9.695,10.099 9.068,9.692 8.254,9.527 7.44,9.362 6.472,9.362 q -0.748,0 -1.507,0.187 -0.759,0.187 -1.364,0.572 -0.605,0.385 -0.99,1.001 -0.385,0.616 -0.385,1.474 0,1.1 0.55,1.716 0.55,0.616 1.375,0.957 0.825,0.341 1.793,0.528 0.968,0.187 1.793,0.418 0.825,0.231 1.375,0.605 0.55,0.374 0.55,1.1 0,0.528 -0.264,0.869 -0.264,0.341 -0.671,0.517 -0.407,0.176 -0.891,0.242 -0.484,0.066 -0.924,0.066 -0.572,0 -1.111,-0.11 Q 5.262,19.394 4.833,19.141 4.404,18.888 4.14,18.459 3.876,18.03 3.854,17.414 Z m 17.578,-4.136 h 1.936 Q 23.258,12.266 22.84,11.529 22.422,10.792 21.773,10.308 21.124,9.824 20.277,9.593 19.43,9.362 18.462,9.362 q -1.342,0 -2.354,0.473 -1.012,0.473 -1.683,1.298 -0.671,0.825 -1.001,1.936 -0.33,1.111 -0.33,2.387 0,1.276 0.341,2.343 0.341,1.067 1.012,1.837 0.671,0.77 1.672,1.188 1.001,0.418 2.299,0.418 2.178,0 3.443,-1.144 1.265,-1.144 1.573,-3.256 H 21.52 q -0.176,1.32 -0.957,2.046 -0.781,0.726 -2.167,0.726 -0.88,0 -1.518,-0.352 -0.638,-0.352 -1.034,-0.935 -0.396,-0.583 -0.583,-1.331 -0.187,-0.748 -0.187,-1.54 0,-0.858 0.176,-1.661 0.176,-0.803 0.583,-1.419 0.407,-0.616 1.089,-0.99 0.682,-0.374 1.694,-0.374 1.188,0 1.892,0.594 0.704,0.594 0.924,1.672 z M 35.6,20.956 q -0.484,0.286 -1.342,0.286 -0.726,0 -1.155,-0.407 -0.429,-0.407 -0.429,-1.331 -0.77,0.924 -1.793,1.331 -1.023,0.407 -2.211,0.407 -0.77,0 -1.463,-0.176 -0.693,-0.176 -1.199,-0.55 -0.506,-0.374 -0.803,-0.979 -0.297,-0.605 -0.297,-1.463 0,-0.968 0.33,-1.584 0.33,-0.616 0.869,-1.001 0.539,-0.385 1.232,-0.583 0.693,-0.198 1.419,-0.33 0.77,-0.154 1.463,-0.231 0.693,-0.077 1.221,-0.22 0.528,-0.143 0.836,-0.418 0.308,-0.275 0.308,-0.803 0,-0.616 -0.231,-0.99 -0.231,-0.374 -0.594,-0.572 -0.363,-0.198 -0.814,-0.264 -0.451,-0.066 -0.891,-0.066 -1.188,0 -1.98,0.451 -0.792,0.451 -0.858,1.705 h -1.87 q 0.044,-1.056 0.44,-1.782 0.396,-0.726 1.056,-1.177 0.66,-0.451 1.507,-0.649 0.847,-0.198 1.815,-0.198 0.77,0 1.529,0.11 0.759,0.11 1.375,0.451 0.616,0.341 0.99,0.957 0.374,0.616 0.374,1.606 v 5.852 q 0,0.66 0.077,0.968 0.077,0.308 0.517,0.308 0.242,0 0.572,-0.11 z m -3.036,-5.83 q -0.352,0.264 -0.924,0.385 -0.572,0.121 -1.199,0.198 -0.627,0.077 -1.265,0.176 -0.638,0.099 -1.144,0.319 -0.506,0.22 -0.825,0.627 -0.319,0.407 -0.319,1.111 0,0.462 0.187,0.781 0.187,0.319 0.484,0.517 0.297,0.198 0.693,0.286 0.396,0.088 0.836,0.088 0.924,0 1.584,-0.253 0.66,-0.253 1.078,-0.638 0.418,-0.385 0.616,-0.836 0.198,-0.451 0.198,-0.847 z M 37.448,5.292 V 21 h 1.87 V 5.292 Z m 12.672,8.932 h -6.534 q 0.044,-0.66 0.286,-1.243 0.242,-0.583 0.66,-1.023 0.418,-0.44 1.001,-0.693 0.583,-0.253 1.309,-0.253 0.704,0 1.287,0.253 0.583,0.253 1.012,0.682 0.429,0.429 0.682,1.023 0.253,0.594 0.297,1.254 z m 1.804,3.168 h -1.848 q -0.242,1.122 -1.001,1.672 -0.759,0.55 -1.947,0.55 -0.924,0 -1.606,-0.308 Q 44.84,18.998 44.4,18.481 43.96,17.964 43.762,17.293 43.564,16.622 43.586,15.874 H 52.1 Q 52.144,14.84 51.913,13.696 51.682,12.552 51.077,11.584 50.472,10.616 49.471,9.989 48.47,9.362 46.952,9.362 q -1.166,0 -2.145,0.44 -0.979,0.44 -1.694,1.232 -0.715,0.792 -1.111,1.87 -0.396,1.078 -0.396,2.376 0.044,1.298 0.385,2.398 0.341,1.1 1.023,1.892 0.682,0.792 1.683,1.232 1.001,0.44 2.365,0.44 1.936,0 3.212,-0.968 1.276,-0.968 1.65,-2.882 z m 0.506,7.942 h 1.408 q 1.716,-2.266 2.585,-4.895 0.869,-2.629 0.869,-5.225 0,-1.452 -0.242,-2.772 Q 56.808,11.122 56.357,9.857 55.906,8.592 55.268,7.371 54.63,6.15 53.838,4.918 H 52.43 q 1.54,2.53 2.211,5.027 0.671,2.497 0.671,5.269 0,2.684 -0.66,5.159 -0.66,2.475 -2.222,4.961 z"
             id="path1712" /></g><g
           style="color-interpolation:linearRGB;fill:#262626;stroke:#262626;stroke-width:0.5;stroke-linejoin:round;color-rendering:optimizeQuality;image-rendering:optimizeQuality;text-rendering:geometricPrecision"
           id="g1748"><line
             y2="31"
             style="fill:none"
             x1="73"
             x2="73"
             y1="356"
             id="line1716" /><line
             y2="31"
             style="fill:none"
             x1="507"
             x2="507"
             y1="356"
             id="line1718" /><line
             y2="356"
             style="fill:none"
             x1="73"
             x2="77.339996"
             y1="356"
             id="line1720" /><line
             y2="301.83331"
             style="fill:none"
             x1="73"
             x2="77.339996"
             y1="301.83331"
             id="line1722" /><line
             y2="247.6667"
             style="fill:none"
             x1="73"
             x2="77.339996"
             y1="247.6667"
             id="line1724" /><line
             y2="193.5"
             style="fill:none"
             x1="73"
             x2="77.339996"
             y1="193.5"
             id="line1726" /><line
             y2="139.3333"
             style="fill:none"
             x1="73"
             x2="77.339996"
             y1="139.3333"
             id="line1728" /><line
             y2="85.166702"
             style="fill:none"
             x1="73"
             x2="77.339996"
             y1="85.166702"
             id="line1730" /><line
             y2="31"
             style="fill:none"
             x1="73"
             x2="77.339996"
             y1="31"
             id="line1732" /><line
             y2="356"
             style="fill:none"
             x1="507"
             x2="502.66"
             y1="356"
             id="line1734" /><line
             y2="301.83331"
             style="fill:none"
             x1="507"
             x2="502.66"
             y1="301.83331"
             id="line1736" /><line
             y2="247.6667"
             style="fill:none"
             x1="507"
             x2="502.66"
             y1="247.6667"
             id="line1738" /><line
             y2="193.5"
             style="fill:none"
             x1="507"
             x2="502.66"
             y1="193.5"
             id="line1740" /><line
             y2="139.3333"
             style="fill:none"
             x1="507"
             x2="502.66"
             y1="139.3333"
             id="line1742" /><line
             y2="85.166702"
             style="fill:none"
             x1="507"
             x2="502.66"
             y1="85.166702"
             id="line1744" /><line
             y2="31"
             style="fill:none"
             x1="507"
             x2="502.66"
             y1="31"
             id="line1746" /></g><g
           transform="translate(67,356)"
           style="font-size:20px;font-family:'Helvetica Neue';color-interpolation:linearRGB;fill:#262626;stroke:#262626;color-rendering:optimizeQuality;image-rendering:optimizeQuality;text-rendering:geometricPrecision"
           id="g1752"><path
             style="stroke:none"
             d="m -11.12,-1.66 h 1.7 q -0.02,-0.64 0.13,-1.27 0.15,-0.63 0.49,-1.13 0.34,-0.5 0.87,-0.81 0.53,-0.31 1.27,-0.31 0.56,0 1.06,0.18 0.5,0.18 0.87,0.52 0.37,0.34 0.59,0.81 0.22,0.47 0.22,1.05 0,0.74 -0.23,1.3 -0.23,0.56 -0.68,1.04 -0.45,0.48 -1.13,0.95 -0.68,0.47 -1.58,1.03 -0.74,0.44 -1.42,0.94 -0.68,0.5 -1.22,1.16 -0.54,0.66 -0.89,1.55 -0.35,0.89 -0.45,2.15 h 9.26 V 6 h -7.28 q 0.12,-0.66 0.51,-1.17 0.39,-0.51 0.94,-0.95 0.55,-0.44 1.21,-0.83 0.66,-0.39 1.32,-0.79 0.66,-0.42 1.28,-0.88 0.62,-0.46 1.1,-1.03 0.48,-0.57 0.77,-1.29 0.29,-0.72 0.29,-1.66 0,-1 -0.35,-1.76 -0.35,-0.76 -0.95,-1.27 -0.6,-0.51 -1.41,-0.78 -0.81,-0.27 -1.73,-0.27 -1.12,0 -2,0.38 -0.88,0.38 -1.47,1.05 -0.59,0.67 -0.87,1.59 -0.28,0.92 -0.22,2 z"
             id="path1750" /></g><g
           transform="translate(67,301.8333)"
           style="font-size:20px;font-family:'Helvetica Neue';color-interpolation:linearRGB;fill:#262626;stroke:#262626;color-rendering:optimizeQuality;image-rendering:optimizeQuality;text-rendering:geometricPrecision"
           id="g1756"><path
             style="stroke:none"
             d="m -27.12,-1.66 h 1.7 q -0.02,-0.64 0.13,-1.27 0.15,-0.63 0.49,-1.13 0.34,-0.5 0.87,-0.81 0.53,-0.31 1.27,-0.31 0.56,0 1.06,0.18 0.5,0.18 0.87,0.52 0.37,0.34 0.59,0.81 0.22,0.47 0.22,1.05 0,0.74 -0.23,1.3 -0.23,0.56 -0.68,1.04 -0.45,0.48 -1.13,0.95 -0.68,0.47 -1.58,1.03 -0.74,0.44 -1.42,0.94 -0.68,0.5 -1.22,1.16 -0.54,0.66 -0.89,1.55 -0.35,0.89 -0.45,2.15 h 9.26 V 6 h -7.28 q 0.12,-0.66 0.51,-1.17 0.39,-0.51 0.94,-0.95 0.55,-0.44 1.21,-0.83 0.66,-0.39 1.32,-0.79 0.66,-0.42 1.28,-0.88 0.62,-0.46 1.1,-1.03 0.48,-0.57 0.77,-1.29 0.29,-0.72 0.29,-1.66 0,-1 -0.35,-1.76 -0.35,-0.76 -0.95,-1.27 -0.6,-0.51 -1.41,-0.78 -0.81,-0.27 -1.73,-0.27 -1.12,0 -2,0.38 -0.88,0.38 -1.47,1.05 -0.59,0.67 -0.87,1.59 -0.28,0.92 -0.22,2 z m 11.9,6.94 V 7.5 H -13 V 5.28 Z m 4.78,-6.94 h 1.7 q -0.02,-0.64 0.13,-1.27 0.15,-0.63 0.49,-1.13 0.34,-0.5 0.87,-0.81 0.53,-0.31 1.27,-0.31 0.56,0 1.06,0.18 0.5,0.18 0.87,0.52 0.37,0.34 0.59,0.81 0.22,0.47 0.22,1.05 0,0.74 -0.23,1.3 -0.23,0.56 -0.68,1.04 Q -4.6,0.2 -5.28,0.67 -5.96,1.14 -6.86,1.7 -7.6,2.14 -8.28,2.64 -8.96,3.14 -9.5,3.8 q -0.54,0.66 -0.89,1.55 -0.35,0.89 -0.45,2.15 h 9.26 V 6 h -7.28 q 0.12,-0.66 0.51,-1.17 0.39,-0.51 0.94,-0.95 0.55,-0.44 1.21,-0.83 0.66,-0.39 1.32,-0.79 0.66,-0.42 1.28,-0.88 0.62,-0.46 1.1,-1.03 0.48,-0.57 0.77,-1.29 0.29,-0.72 0.29,-1.66 0,-1 -0.35,-1.76 -0.35,-0.76 -0.95,-1.27 -0.6,-0.51 -1.41,-0.78 -0.81,-0.27 -1.73,-0.27 -1.12,0 -2,0.38 -0.88,0.38 -1.47,1.05 -0.59,0.67 -0.87,1.59 -0.28,0.92 -0.22,2 z"
             id="path1754" /></g><g
           transform="translate(67,247.6667)"
           style="font-size:20px;font-family:'Helvetica Neue';color-interpolation:linearRGB;fill:#262626;stroke:#262626;color-rendering:optimizeQuality;image-rendering:optimizeQuality;text-rendering:geometricPrecision"
           id="g1760"><path
             style="stroke:none"
             d="m -27.12,-1.66 h 1.7 q -0.02,-0.64 0.13,-1.27 0.15,-0.63 0.49,-1.13 0.34,-0.5 0.87,-0.81 0.53,-0.31 1.27,-0.31 0.56,0 1.06,0.18 0.5,0.18 0.87,0.52 0.37,0.34 0.59,0.81 0.22,0.47 0.22,1.05 0,0.74 -0.23,1.3 -0.23,0.56 -0.68,1.04 -0.45,0.48 -1.13,0.95 -0.68,0.47 -1.58,1.03 -0.74,0.44 -1.42,0.94 -0.68,0.5 -1.22,1.16 -0.54,0.66 -0.89,1.55 -0.35,0.89 -0.45,2.15 h 9.26 V 6 h -7.28 q 0.12,-0.66 0.51,-1.17 0.39,-0.51 0.94,-0.95 0.55,-0.44 1.21,-0.83 0.66,-0.39 1.32,-0.79 0.66,-0.42 1.28,-0.88 0.62,-0.46 1.1,-1.03 0.48,-0.57 0.77,-1.29 0.29,-0.72 0.29,-1.66 0,-1 -0.35,-1.76 -0.35,-0.76 -0.95,-1.27 -0.6,-0.51 -1.41,-0.78 -0.81,-0.27 -1.73,-0.27 -1.12,0 -2,0.38 -0.88,0.38 -1.47,1.05 -0.59,0.67 -0.87,1.59 -0.28,0.92 -0.22,2 z m 11.9,6.94 V 7.5 H -13 V 5.28 Z M -4.54,2.68 H -9.3 l 4.72,-6.94 h 0.04 z m 1.6,0 V -6.68 H -4.3 l -6.46,9.22 v 1.64 h 6.22 V 7.5 h 1.6 V 4.18 h 1.92 v -1.5 z"
             id="path1758" /></g><g
           transform="translate(67,193.5)"
           style="font-size:20px;font-family:'Helvetica Neue';color-interpolation:linearRGB;fill:#262626;stroke:#262626;color-rendering:optimizeQuality;image-rendering:optimizeQuality;text-rendering:geometricPrecision"
           id="g1764"><path
             style="stroke:none"
             d="m -27.12,-1.66 h 1.7 q -0.02,-0.64 0.13,-1.27 0.15,-0.63 0.49,-1.13 0.34,-0.5 0.87,-0.81 0.53,-0.31 1.27,-0.31 0.56,0 1.06,0.18 0.5,0.18 0.87,0.52 0.37,0.34 0.59,0.81 0.22,0.47 0.22,1.05 0,0.74 -0.23,1.3 -0.23,0.56 -0.68,1.04 -0.45,0.48 -1.13,0.95 -0.68,0.47 -1.58,1.03 -0.74,0.44 -1.42,0.94 -0.68,0.5 -1.22,1.16 -0.54,0.66 -0.89,1.55 -0.35,0.89 -0.45,2.15 h 9.26 V 6 h -7.28 q 0.12,-0.66 0.51,-1.17 0.39,-0.51 0.94,-0.95 0.55,-0.44 1.21,-0.83 0.66,-0.39 1.32,-0.79 0.66,-0.42 1.28,-0.88 0.62,-0.46 1.1,-1.03 0.48,-0.57 0.77,-1.29 0.29,-0.72 0.29,-1.66 0,-1 -0.35,-1.76 -0.35,-0.76 -0.95,-1.27 -0.6,-0.51 -1.41,-0.78 -0.81,-0.27 -1.73,-0.27 -1.12,0 -2,0.38 -0.88,0.38 -1.47,1.05 -0.59,0.67 -0.87,1.59 -0.28,0.92 -0.22,2 z m 11.9,6.94 V 7.5 H -13 V 5.28 Z m 12.18,-8.34 h 1.7 q -0.16,-1.76 -1.2,-2.69 -1.04,-0.93 -2.8,-0.93 -1.52,0 -2.52,0.64 -1,0.64 -1.6,1.7 -0.6,1.06 -0.85,2.43 -0.25,1.37 -0.25,2.83 0,1.12 0.17,2.32 0.17,1.2 0.69,2.2 0.52,1 1.48,1.64 0.96,0.64 2.54,0.64 1.34,0 2.25,-0.45 0.91,-0.45 1.46,-1.14 0.55,-0.69 0.79,-1.53 0.24,-0.84 0.24,-1.62 0,-0.98 -0.3,-1.82 -0.3,-0.84 -0.85,-1.46 -0.55,-0.62 -1.36,-0.97 -0.81,-0.35 -1.83,-0.35 -1.16,0 -2.05,0.44 -0.89,0.44 -1.49,1.42 L -8.86,0.2 q 0.02,-0.82 0.16,-1.76 0.14,-0.94 0.51,-1.75 0.37,-0.81 1.03,-1.34 0.66,-0.53 1.74,-0.53 1.02,0 1.64,0.58 0.62,0.58 0.74,1.54 z m -2.56,2.94 q 0.72,0 1.26,0.26 0.54,0.26 0.9,0.69 0.36,0.43 0.53,1.02 0.17,0.59 0.17,1.25 0,0.62 -0.19,1.19 -0.19,0.57 -0.55,1.01 -0.36,0.44 -0.89,0.69 -0.53,0.25 -1.23,0.25 -0.7,0 -1.25,-0.25 -0.55,-0.25 -0.92,-0.67 -0.37,-0.42 -0.57,-1 -0.2,-0.58 -0.2,-1.24 0,-0.66 0.19,-1.25 0.19,-0.59 0.57,-1.02 0.38,-0.43 0.92,-0.68 0.54,-0.25 1.26,-0.25 z"
             id="path1762" /></g><g
           transform="translate(67,139.3333)"
           style="font-size:20px;font-family:'Helvetica Neue';color-interpolation:linearRGB;fill:#262626;stroke:#262626;color-rendering:optimizeQuality;image-rendering:optimizeQuality;text-rendering:geometricPrecision"
           id="g1768"><path
             style="stroke:none"
             d="m -27.12,-1.66 h 1.7 q -0.02,-0.64 0.13,-1.27 0.15,-0.63 0.49,-1.13 0.34,-0.5 0.87,-0.81 0.53,-0.31 1.27,-0.31 0.56,0 1.06,0.18 0.5,0.18 0.87,0.52 0.37,0.34 0.59,0.81 0.22,0.47 0.22,1.05 0,0.74 -0.23,1.3 -0.23,0.56 -0.68,1.04 -0.45,0.48 -1.13,0.95 -0.68,0.47 -1.58,1.03 -0.74,0.44 -1.42,0.94 -0.68,0.5 -1.22,1.16 -0.54,0.66 -0.89,1.55 -0.35,0.89 -0.45,2.15 h 9.26 V 6 h -7.28 q 0.12,-0.66 0.51,-1.17 0.39,-0.51 0.94,-0.95 0.55,-0.44 1.21,-0.83 0.66,-0.39 1.32,-0.79 0.66,-0.42 1.28,-0.88 0.62,-0.46 1.1,-1.03 0.48,-0.57 0.77,-1.29 0.29,-0.72 0.29,-1.66 0,-1 -0.35,-1.76 -0.35,-0.76 -0.95,-1.27 -0.6,-0.51 -1.41,-0.78 -0.81,-0.27 -1.73,-0.27 -1.12,0 -2,0.38 -0.88,0.38 -1.47,1.05 -0.59,0.67 -0.87,1.59 -0.28,0.92 -0.22,2 z m 11.9,6.94 V 7.5 H -13 V 5.28 Z m 7,-8.28 q 0,-0.54 0.2,-0.94 0.2,-0.4 0.53,-0.68 0.33,-0.28 0.79,-0.42 0.46,-0.14 0.96,-0.14 1.04,0 1.71,0.55 0.67,0.55 0.67,1.63 0,1.08 -0.66,1.68 -0.66,0.6 -1.68,0.6 -0.52,0 -0.98,-0.14 Q -7.14,-1 -7.48,-1.28 -7.82,-1.56 -8.02,-1.99 -8.22,-2.42 -8.22,-3 Z m -1.8,-0.06 q 0,0.96 0.54,1.77 0.54,0.81 1.44,1.17 -1.2,0.42 -1.84,1.35 -0.64,0.93 -0.64,2.19 0,1.08 0.37,1.89 0.37,0.81 1.02,1.35 0.65,0.54 1.53,0.8 0.88,0.26 1.9,0.26 0.98,0 1.84,-0.28 Q -3,7.16 -2.37,6.61 -1.74,6.06 -1.37,5.26 -1,4.46 -1,3.42 -1,2.1 -1.62,1.19 q -0.62,-0.91 -1.9,-1.31 0.9,-0.4 1.43,-1.19 0.53,-0.79 0.53,-1.75 0,-0.68 -0.24,-1.33 -0.24,-0.65 -0.75,-1.16 -0.51,-0.51 -1.33,-0.82 -0.82,-0.31 -1.98,-0.31 -0.82,0 -1.57,0.24 -0.75,0.24 -1.33,0.7 -0.58,0.46 -0.92,1.13 -0.34,0.67 -0.34,1.55 z m 1.3,6.56 q 0,-0.62 0.23,-1.12 0.23,-0.5 0.64,-0.86 0.41,-0.36 0.96,-0.55 0.55,-0.19 1.17,-0.19 0.6,0 1.13,0.21 0.53,0.21 0.93,0.57 0.4,0.36 0.63,0.85 0.23,0.49 0.23,1.07 0,0.6 -0.21,1.1 -0.21,0.5 -0.6,0.87 Q -4,5.82 -4.53,6.03 -5.06,6.24 -5.7,6.24 -7.02,6.24 -7.87,5.51 -8.72,4.78 -8.72,3.5 Z"
             id="path1766" /></g><g
           transform="translate(67,85.1667)"
           style="font-size:20px;font-family:'Helvetica Neue';color-interpolation:linearRGB;fill:#262626;stroke:#262626;color-rendering:optimizeQuality;image-rendering:optimizeQuality;text-rendering:geometricPrecision"
           id="g1772"><path
             style="stroke:none"
             d="m -7.64,-0.6 v 1.44 q 0.48,-0.06 1.02,-0.06 0.64,0 1.19,0.17 0.55,0.17 0.95,0.52 0.4,0.35 0.64,0.86 0.24,0.51 0.24,1.17 0,0.64 -0.25,1.15 Q -4.1,5.16 -4.52,5.51 -4.94,5.86 -5.5,6.05 -6.06,6.24 -6.68,6.24 -8.14,6.24 -8.9,5.37 -9.66,4.5 -9.7,3.12 h -1.7 q -0.02,1.1 0.31,1.96 0.33,0.86 0.95,1.45 0.62,0.59 1.5,0.89 0.88,0.3 1.96,0.3 1,0 1.89,-0.27 Q -3.9,7.18 -3.24,6.64 -2.58,6.1 -2.19,5.29 -1.8,4.48 -1.8,3.42 -1.8,2.14 -2.43,1.2 -3.06,0.26 -4.36,-0.02 v -0.04 q 0.84,-0.38 1.4,-1.12 0.56,-0.74 0.56,-1.7 0,-0.98 -0.33,-1.7 -0.33,-0.72 -0.91,-1.18 -0.58,-0.46 -1.37,-0.69 -0.79,-0.23 -1.71,-0.23 -1.06,0 -1.87,0.34 -0.81,0.34 -1.35,0.94 -0.54,0.6 -0.83,1.44 -0.29,0.84 -0.33,1.86 h 1.7 q 0,-0.62 0.16,-1.18 0.16,-0.56 0.49,-0.98 0.33,-0.42 0.84,-0.67 0.51,-0.25 1.19,-0.25 1.08,0 1.8,0.57 0.72,0.57 0.72,1.71 0,0.56 -0.22,1 -0.22,0.44 -0.59,0.73 -0.37,0.29 -0.86,0.44 -0.49,0.15 -1.03,0.15 h -0.36 q -0.1,0 -0.2,0 -0.08,0 -0.18,-0.02 z"
             id="path1770" /></g><g
           transform="translate(67,31)"
           style="font-size:20px;font-family:'Helvetica Neue';color-interpolation:linearRGB;fill:#262626;stroke:#262626;color-rendering:optimizeQuality;image-rendering:optimizeQuality;text-rendering:geometricPrecision"
           id="g1776"><path
             style="stroke:none"
             d="m -23.64,-0.6 v 1.44 q 0.48,-0.06 1.02,-0.06 0.64,0 1.19,0.17 0.55,0.17 0.95,0.52 0.4,0.35 0.64,0.86 0.24,0.51 0.24,1.17 0,0.64 -0.25,1.15 -0.25,0.51 -0.67,0.86 -0.42,0.35 -0.98,0.54 -0.56,0.19 -1.18,0.19 -1.46,0 -2.22,-0.87 -0.76,-0.87 -0.8,-2.25 h -1.7 q -0.02,1.1 0.31,1.96 0.33,0.86 0.95,1.45 0.62,0.59 1.5,0.89 0.88,0.3 1.96,0.3 1,0 1.89,-0.27 0.89,-0.27 1.55,-0.81 0.66,-0.54 1.05,-1.35 0.39,-0.81 0.39,-1.87 0,-1.28 -0.63,-2.22 -0.63,-0.94 -1.93,-1.22 v -0.04 q 0.84,-0.38 1.4,-1.12 0.56,-0.74 0.56,-1.7 0,-0.98 -0.33,-1.7 -0.33,-0.72 -0.91,-1.18 -0.58,-0.46 -1.37,-0.69 -0.79,-0.23 -1.71,-0.23 -1.06,0 -1.87,0.34 -0.81,0.34 -1.35,0.94 -0.54,0.6 -0.83,1.44 -0.29,0.84 -0.33,1.86 h 1.7 q 0,-0.62 0.16,-1.18 0.16,-0.56 0.49,-0.98 0.33,-0.42 0.84,-0.67 0.51,-0.25 1.19,-0.25 1.08,0 1.8,0.57 0.72,0.57 0.72,1.71 0,0.56 -0.22,1 -0.22,0.44 -0.59,0.73 -0.37,0.29 -0.86,0.44 -0.49,0.15 -1.03,0.15 h -0.36 q -0.1,0 -0.2,0 -0.08,0 -0.18,-0.02 z m 8.42,5.88 V 7.5 H -13 V 5.28 Z m 4.78,-6.94 h 1.7 q -0.02,-0.64 0.13,-1.27 0.15,-0.63 0.49,-1.13 0.34,-0.5 0.87,-0.81 0.53,-0.31 1.27,-0.31 0.56,0 1.06,0.18 0.5,0.18 0.87,0.52 0.37,0.34 0.59,0.81 0.22,0.47 0.22,1.05 0,0.74 -0.23,1.3 -0.23,0.56 -0.68,1.04 Q -4.6,0.2 -5.28,0.67 -5.96,1.14 -6.86,1.7 -7.6,2.14 -8.28,2.64 -8.96,3.14 -9.5,3.8 q -0.54,0.66 -0.89,1.55 -0.35,0.89 -0.45,2.15 h 9.26 V 6 h -7.28 q 0.12,-0.66 0.51,-1.17 0.39,-0.51 0.94,-0.95 0.55,-0.44 1.21,-0.83 0.66,-0.39 1.32,-0.79 0.66,-0.42 1.28,-0.88 0.62,-0.46 1.1,-1.03 0.48,-0.57 0.77,-1.29 0.29,-0.72 0.29,-1.66 0,-1 -0.35,-1.76 -0.35,-0.76 -0.95,-1.27 -0.6,-0.51 -1.41,-0.78 -0.81,-0.27 -1.73,-0.27 -1.12,0 -2,0.38 -0.88,0.38 -1.47,1.05 -0.59,0.67 -0.87,1.59 -0.28,0.92 -0.22,2 z"
             id="path1774" /></g><g
           transform="rotate(-90,114.7499,78.7499)"
           style="font-size:22px;font-family:'Helvetica Neue';color-interpolation:linearRGB;fill:#262626;stroke:#262626;color-rendering:optimizeQuality;image-rendering:optimizeQuality;text-rendering:geometricPrecision"
           id="g1780"><path
             style="stroke:none"
             d="M -19.74,-20.708 V -5 h 1.98 v -13.068 h 0.044 L -12.81,-5 h 1.782 l 4.906,-13.068 h 0.044 V -5 h 1.98 v -15.708 h -2.86 l -4.972,13.2 -4.95,-13.2 z M 2.15,-0.666 H 3.58 Q 2.018,-3.196 1.347,-5.682 0.676,-8.168 0.676,-10.94 q 0,-2.706 0.66,-5.17 0.66,-2.464 2.244,-4.972 H 2.15 q -1.716,2.266 -2.585,4.906 -0.869,2.64 -0.869,5.236 0,1.452 0.242,2.772 0.242,1.32 0.693,2.574 0.451,1.254 1.089,2.475 0.638,1.221 1.43,2.453 z M 4.768,-20.708 V -5 h 1.87 v -6.424 q 0,-0.77 0.209,-1.419 0.209,-0.649 0.627,-1.133 0.418,-0.484 1.045,-0.748 0.627,-0.264 1.485,-0.264 1.078,0 1.694,0.616 0.616,0.616 0.616,1.672 V -5 h 1.87 v -7.48 q 0,-0.924 -0.187,-1.683 -0.187,-0.759 -0.649,-1.309 -0.462,-0.55 -1.21,-0.858 -0.748,-0.308 -1.87,-0.308 -0.506,0 -1.045,0.11 -0.539,0.11 -1.034,0.341 -0.495,0.231 -0.891,0.594 -0.396,0.363 -0.616,0.891 H 6.638 v -6.006 z m 10.626,20.042 h 1.408 q 1.716,-2.266 2.585,-4.895 0.869,-2.629 0.869,-5.225 0,-1.452 -0.242,-2.772 -0.242,-1.32 -0.693,-2.585 -0.451,-1.265 -1.089,-2.486 -0.638,-1.221 -1.43,-2.453 h -1.408 q 1.54,2.53 2.211,5.027 0.671,2.497 0.671,5.269 0,2.684 -0.66,5.159 -0.66,2.475 -2.222,4.961 z"
             id="path1778" /></g><g
           style="color-interpolation:linearRGB;fill:#ff00ff;stroke:#ff00ff;stroke-width:4;stroke-linecap:butt;stroke-linejoin:round;color-rendering:optimizeQuality;image-rendering:optimizeQuality;text-rendering:geometricPrecision"
           id="g1856"><line
             y2="318.4899"
             style="fill:none"
             x1="507"
             x2="73"
             y1="318.4899"
             id="line1782" /><path
             d="m 0,-4 c -2.2091,0 -4,1.7909 -4,4 0,2.2091 1.7909,4 4,4 C 2.2091,4 4,2.2091 4,0 V 0 C 4,-2.2091 2.2091,-4 0,-4 Z"
             style="fill:#000000;stroke:none"
             transform="translate(507,318.625)"
             id="path1784" /><path
             d="m 0,-4 c -2.2091,0 -4,1.7909 -4,4 0,2.2091 1.7909,4 4,4 C 2.2091,4 4,2.2091 4,0 V 0 C 4,-2.2091 2.2091,-4 0,-4 Z"
             style="fill:#000000;stroke:none"
             transform="translate(430.1022,316.8375)"
             id="path1786" /><path
             d="m 0,-4 c -2.2091,0 -4,1.7909 -4,4 0,2.2091 1.7909,4 4,4 C 2.2091,4 4,2.2091 4,0 V 0 C 4,-2.2091 2.2091,-4 0,-4 Z"
             style="fill:#000000;stroke:none"
             transform="translate(385.1199,315.1854)"
             id="path1788" /><path
             d="m 0,-4 c -2.2091,0 -4,1.7909 -4,4 0,2.2091 1.7909,4 4,4 C 2.2091,4 4,2.2091 4,0 V 0 C 4,-2.2091 2.2091,-4 0,-4 Z"
             style="fill:#000000;stroke:none"
             transform="translate(353.2045,313.75)"
             id="path1790" /><path
             d="m 0,-4 c -2.2091,0 -4,1.7909 -4,4 0,2.2091 1.7909,4 4,4 C 2.2091,4 4,2.2091 4,0 V 0 C 4,-2.2091 2.2091,-4 0,-4 Z"
             style="fill:#000000;stroke:none"
             transform="translate(328.4489,312.3417)"
             id="path1792" /><path
             d="m 0,-4 c -2.2091,0 -4,1.7909 -4,4 0,2.2091 1.7909,4 4,4 C 2.2091,4 4,2.2091 4,0 V 0 C 4,-2.2091 2.2091,-4 0,-4 Z"
             style="fill:#000000;stroke:none"
             transform="translate(308.2221,312.5854)"
             id="path1794" /><path
             d="m 0,-4 c -2.2091,0 -4,1.7909 -4,4 0,2.2091 1.7909,4 4,4 C 2.2091,4 4,2.2091 4,0 V 0 C 4,-2.2091 2.2091,-4 0,-4 Z"
             style="fill:#000000;stroke:none"
             transform="translate(291.1206,312.0167)"
             id="path1796" /><path
             d="m 0,-4 c -2.2091,0 -4,1.7909 -4,4 0,2.2091 1.7909,4 4,4 C 2.2091,4 4,2.2091 4,0 V 0 C 4,-2.2091 2.2091,-4 0,-4 Z"
             style="fill:#000000;stroke:none"
             transform="translate(276.3067,310.4458)"
             id="path1798" /><path
             d="m 0,-4 c -2.2091,0 -4,1.7909 -4,4 0,2.2091 1.7909,4 4,4 C 2.2091,4 4,2.2091 4,0 V 0 C 4,-2.2091 2.2091,-4 0,-4 Z"
             style="fill:#000000;stroke:none"
             transform="translate(263.2398,310.7437)"
             id="path1800" /><path
             d="m 0,-4 c -2.2091,0 -4,1.7909 -4,4 0,2.2091 1.7909,4 4,4 C 2.2091,4 4,2.2091 4,0 V 0 C 4,-2.2091 2.2091,-4 0,-4 Z"
             style="fill:#000000;stroke:none"
             transform="translate(251.5511,311.0146)"
             id="path1802" /><path
             d="m 0,-4 c -2.2091,0 -4,1.7909 -4,4 0,2.2091 1.7909,4 4,4 C 2.2091,4 4,2.2091 4,0 V 0 C 4,-2.2091 2.2091,-4 0,-4 Z"
             style="fill:#000000;stroke:none"
             transform="translate(240.9774,311.0958)"
             id="path1804" /><path
             d="m 0,-4 c -2.2091,0 -4,1.7909 -4,4 0,2.2091 1.7909,4 4,4 C 2.2091,4 4,2.2091 4,0 V 0 C 4,-2.2091 2.2091,-4 0,-4 Z"
             style="fill:#000000;stroke:none"
             transform="translate(231.3244,311.8271)"
             id="path1806" /><path
             d="m 0,-4 c -2.2091,0 -4,1.7909 -4,4 0,2.2091 1.7909,4 4,4 C 2.2091,4 4,2.2091 4,0 V 0 C 4,-2.2091 2.2091,-4 0,-4 Z"
             style="fill:#000000;stroke:none"
             transform="translate(222.4444,311.9354)"
             id="path1808" /><path
             d="m 0,-4 c -2.2091,0 -4,1.7909 -4,4 0,2.2091 1.7909,4 4,4 C 2.2091,4 4,2.2091 4,0 V 0 C 4,-2.2091 2.2091,-4 0,-4 Z"
             style="fill:#000000;stroke:none"
             transform="translate(214.2229,311.6375)"
             id="path1810" /><path
             d="m 0,-4 c -2.2091,0 -4,1.7909 -4,4 0,2.2091 1.7909,4 4,4 C 2.2091,4 4,2.2091 4,0 V 0 C 4,-2.2091 2.2091,-4 0,-4 Z"
             style="fill:#000000;stroke:none"
             transform="translate(206.5688,310.7979)"
             id="path1812" /><path
             d="m 0,-4 c -2.2091,0 -4,1.7909 -4,4 0,2.2091 1.7909,4 4,4 C 2.2091,4 4,2.2091 4,0 V 0 C 4,-2.2091 2.2091,-4 0,-4 Z"
             style="fill:#000000;stroke:none"
             transform="translate(199.4089,311.2854)"
             id="path1814" /><path
             d="m 0,-4 c -2.2091,0 -4,1.7909 -4,4 0,2.2091 1.7909,4 4,4 C 2.2091,4 4,2.2091 4,0 V 0 C 4,-2.2091 2.2091,-4 0,-4 Z"
             style="fill:#000000;stroke:none"
             transform="translate(192.6832,312.0167)"
             id="path1816" /><path
             d="m 0,-4 c -2.2091,0 -4,1.7909 -4,4 0,2.2091 1.7909,4 4,4 C 2.2091,4 4,2.2091 4,0 V 0 C 4,-2.2091 2.2091,-4 0,-4 Z"
             style="fill:#000000;stroke:none"
             transform="translate(186.342,313.3167)"
             id="path1818" /><path
             d="m 0,-4 c -2.2091,0 -4,1.7909 -4,4 0,2.2091 1.7909,4 4,4 C 2.2091,4 4,2.2091 4,0 V 0 C 4,-2.2091 2.2091,-4 0,-4 Z"
             style="fill:#000000;stroke:none"
             transform="translate(180.3438,312.9104)"
             id="path1820" /><path
             d="m 0,-4 c -2.2091,0 -4,1.7909 -4,4 0,2.2091 1.7909,4 4,4 C 2.2091,4 4,2.2091 4,0 V 0 C 4,-2.2091 2.2091,-4 0,-4 Z"
             style="fill:#000000;stroke:none"
             transform="translate(174.6533,313.4521)"
             id="path1822" /><path
             d="m 0,-4 c -2.2091,0 -4,1.7909 -4,4 0,2.2091 1.7909,4 4,4 C 2.2091,4 4,2.2091 4,0 V 0 C 4,-2.2091 2.2091,-4 0,-4 Z"
             style="fill:#000000;stroke:none"
             transform="translate(169.2406,315.375)"
             id="path1824" /><path
             d="m 0,-4 c -2.2091,0 -4,1.7909 -4,4 0,2.2091 1.7909,4 4,4 C 2.2091,4 4,2.2091 4,0 V 0 C 4,-2.2091 2.2091,-4 0,-4 Z"
             style="fill:#000000;stroke:none"
             transform="translate(164.0796,314.8604)"
             id="path1826" /><path
             d="m 0,-4 c -2.2091,0 -4,1.7909 -4,4 0,2.2091 1.7909,4 4,4 C 2.2091,4 4,2.2091 4,0 V 0 C 4,-2.2091 2.2091,-4 0,-4 Z"
             style="fill:#000000;stroke:none"
             transform="translate(159.1481,315.0229)"
             id="path1828" /><path
             d="m 0,-4 c -2.2091,0 -4,1.7909 -4,4 0,2.2091 1.7909,4 4,4 C 2.2091,4 4,2.2091 4,0 V 0 C 4,-2.2091 2.2091,-4 0,-4 Z"
             style="fill:#000000;stroke:none"
             transform="translate(154.4266,316.5125)"
             id="path1830" /><path
             d="m 0,-4 c -2.2091,0 -4,1.7909 -4,4 0,2.2091 1.7909,4 4,4 C 2.2091,4 4,2.2091 4,0 V 0 C 4,-2.2091 2.2091,-4 0,-4 Z"
             style="fill:#000000;stroke:none"
             transform="translate(149.8978,315.7812)"
             id="path1832" /><path
             d="m 0,-4 c -2.2091,0 -4,1.7909 -4,4 0,2.2091 1.7909,4 4,4 C 2.2091,4 4,2.2091 4,0 V 0 C 4,-2.2091 2.2091,-4 0,-4 Z"
             style="fill:#000000;stroke:none"
             transform="translate(145.5466,316.6208)"
             id="path1834" /><path
             d="m 0,-4 c -2.2091,0 -4,1.7909 -4,4 0,2.2091 1.7909,4 4,4 C 2.2091,4 4,2.2091 4,0 V 0 C 4,-2.2091 2.2091,-4 0,-4 Z"
             style="fill:#000000;stroke:none"
             transform="translate(141.3597,316.025)"
             id="path1836" /><path
             d="m 0,-4 c -2.2091,0 -4,1.7909 -4,4 0,2.2091 1.7909,4 4,4 C 2.2091,4 4,2.2091 4,0 V 0 C 4,-2.2091 2.2091,-4 0,-4 Z"
             style="fill:#000000;stroke:none"
             transform="translate(137.3251,316.5396)"
             id="path1838" /><path
             d="m 0,-4 c -2.2091,0 -4,1.7909 -4,4 0,2.2091 1.7909,4 4,4 C 2.2091,4 4,2.2091 4,0 V 0 C 4,-2.2091 2.2091,-4 0,-4 Z"
             style="fill:#000000;stroke:none"
             transform="translate(133.4321,317.5146)"
             id="path1840" /><path
             d="m 0,-4 c -2.2091,0 -4,1.7909 -4,4 0,2.2091 1.7909,4 4,4 C 2.2091,4 4,2.2091 4,0 V 0 C 4,-2.2091 2.2091,-4 0,-4 Z"
             style="fill:#000000;stroke:none"
             transform="translate(129.671,317.5146)"
             id="path1842" /><path
             d="m 0,-4 c -2.2091,0 -4,1.7909 -4,4 0,2.2091 1.7909,4 4,4 C 2.2091,4 4,2.2091 4,0 V 0 C 4,-2.2091 2.2091,-4 0,-4 Z"
             style="fill:#000000;stroke:none"
             transform="translate(126.0333,318.2729)"
             id="path1844" /><path
             d="m 0,-4 c -2.2091,0 -4,1.7909 -4,4 0,2.2091 1.7909,4 4,4 C 2.2091,4 4,2.2091 4,0 V 0 C 4,-2.2091 2.2091,-4 0,-4 Z"
             style="fill:#000000;stroke:none"
             transform="translate(122.5111,318.4083)"
             id="path1846" /><path
             d="m 0,-4 c -2.2091,0 -4,1.7909 -4,4 0,2.2091 1.7909,4 4,4 C 2.2091,4 4,2.2091 4,0 V 0 C 4,-2.2091 2.2091,-4 0,-4 Z"
             style="fill:#000000;stroke:none"
             transform="translate(119.0973,319.4917)"
             id="path1848" /><path
             d="m 0,-4 c -2.2091,0 -4,1.7909 -4,4 0,2.2091 1.7909,4 4,4 C 2.2091,4 4,2.2091 4,0 V 0 C 4,-2.2091 2.2091,-4 0,-4 Z"
             style="fill:#000000;stroke:none"
             transform="translate(115.7854,319.3292)"
             id="path1850" /><path
             d="m 0,-4 c -2.2091,0 -4,1.7909 -4,4 0,2.2091 1.7909,4 4,4 C 2.2091,4 4,2.2091 4,0 V 0 C 4,-2.2091 2.2091,-4 0,-4 Z"
             style="fill:#000000;stroke:none"
             transform="translate(112.5695,320.6833)"
             id="path1852" /><path
             d="m 0,-4 c -2.2091,0 -4,1.7909 -4,4 0,2.2091 1.7909,4 4,4 C 2.2091,4 4,2.2091 4,0 V 0 C 4,-2.2091 2.2091,-4 0,-4 Z"
             style="fill:#000000;stroke:none"
             transform="translate(109.4443,319.7083)"
             id="path1854" /></g><g
           style="color-interpolation:linearRGB;fill:#0000ff;stroke:#0000ff;stroke-width:4;stroke-linecap:butt;stroke-linejoin:bevel;stroke-miterlimit:1;stroke-dasharray:16, 16;color-rendering:optimizeQuality;image-rendering:optimizeQuality;text-rendering:geometricPrecision"
           id="g1958"><line
             y2="30.9613"
             style="fill:none"
             x1="108.3293"
             x2="108.3293"
             y1="356"
             id="line1858" /><path
             d="m 0,-4 c -2.2091,0 -4,1.7909 -4,4 0,2.2091 1.7909,4 4,4 C 2.2091,4 4,2.2091 4,0 V 0 C 4,-2.2091 2.2091,-4 0,-4 Z"
             style="fill:#ff0000;stroke:none"
             transform="translate(507,318.0021)"
             id="path1860" /><path
             d="m 0,-4 c -2.2091,0 -4,1.7909 -4,4 0,2.2091 1.7909,4 4,4 C 2.2091,4 4,2.2091 4,0 V 0 C 4,-2.2091 2.2091,-4 0,-4 Z"
             style="fill:#ff0000;stroke:none"
             transform="translate(430.1022,303.6208)"
             id="path1862" /><path
             d="m 0,-4 c -2.2091,0 -4,1.7909 -4,4 0,2.2091 1.7909,4 4,4 C 2.2091,4 4,2.2091 4,0 V 0 C 4,-2.2091 2.2091,-4 0,-4 Z"
             style="fill:#ff0000;stroke:none"
             transform="translate(385.1199,293.0854)"
             id="path1864" /><path
             d="m 0,-4 c -2.2091,0 -4,1.7909 -4,4 0,2.2091 1.7909,4 4,4 C 2.2091,4 4,2.2091 4,0 V 0 C 4,-2.2091 2.2091,-4 0,-4 Z"
             style="fill:#ff0000;stroke:none"
             transform="translate(353.2045,284.8792)"
             id="path1866" /><path
             d="m 0,-4 c -2.2091,0 -4,1.7909 -4,4 0,2.2091 1.7909,4 4,4 C 2.2091,4 4,2.2091 4,0 V 0 C 4,-2.2091 2.2091,-4 0,-4 Z"
             style="fill:#ff0000;stroke:none"
             transform="translate(328.4489,276.4021)"
             id="path1868" /><path
             d="m 0,-4 c -2.2091,0 -4,1.7909 -4,4 0,2.2091 1.7909,4 4,4 C 2.2091,4 4,2.2091 4,0 V 0 C 4,-2.2091 2.2091,-4 0,-4 Z"
             style="fill:#ff0000;stroke:none"
             transform="translate(308.2221,269.4146)"
             id="path1870" /><path
             d="m 0,-4 c -2.2091,0 -4,1.7909 -4,4 0,2.2091 1.7909,4 4,4 C 2.2091,4 4,2.2091 4,0 V 0 C 4,-2.2091 2.2091,-4 0,-4 Z"
             style="fill:#ff0000;stroke:none"
             transform="translate(291.1206,262.1562)"
             id="path1872" /><path
             d="m 0,-4 c -2.2091,0 -4,1.7909 -4,4 0,2.2091 1.7909,4 4,4 C 2.2091,4 4,2.2091 4,0 V 0 C 4,-2.2091 2.2091,-4 0,-4 Z"
             style="fill:#ff0000;stroke:none"
             transform="translate(276.3067,254.6813)"
             id="path1874" /><path
             d="m 0,-4 c -2.2091,0 -4,1.7909 -4,4 0,2.2091 1.7909,4 4,4 C 2.2091,4 4,2.2091 4,0 V 0 C 4,-2.2091 2.2091,-4 0,-4 Z"
             style="fill:#ff0000;stroke:none"
             transform="translate(263.2398,248.3708)"
             id="path1876" /><path
             d="m 0,-4 c -2.2091,0 -4,1.7909 -4,4 0,2.2091 1.7909,4 4,4 C 2.2091,4 4,2.2091 4,0 V 0 C 4,-2.2091 2.2091,-4 0,-4 Z"
             style="fill:#ff0000;stroke:none"
             transform="translate(251.5511,241.7896)"
             id="path1878" /><path
             d="m 0,-4 c -2.2091,0 -4,1.7909 -4,4 0,2.2091 1.7909,4 4,4 C 2.2091,4 4,2.2091 4,0 V 0 C 4,-2.2091 2.2091,-4 0,-4 Z"
             style="fill:#ff0000;stroke:none"
             transform="translate(240.9774,235.8042)"
             id="path1880" /><path
             d="m 0,-4 c -2.2091,0 -4,1.7909 -4,4 0,2.2091 1.7909,4 4,4 C 2.2091,4 4,2.2091 4,0 V 0 C 4,-2.2091 2.2091,-4 0,-4 Z"
             style="fill:#ff0000;stroke:none"
             transform="translate(231.3244,228.7625)"
             id="path1882" /><path
             d="m 0,-4 c -2.2091,0 -4,1.7909 -4,4 0,2.2091 1.7909,4 4,4 C 2.2091,4 4,2.2091 4,0 V 0 C 4,-2.2091 2.2091,-4 0,-4 Z"
             style="fill:#ff0000;stroke:none"
             transform="translate(222.4444,222.6146)"
             id="path1884" /><path
             d="m 0,-4 c -2.2091,0 -4,1.7909 -4,4 0,2.2091 1.7909,4 4,4 C 2.2091,4 4,2.2091 4,0 V 0 C 4,-2.2091 2.2091,-4 0,-4 Z"
             style="fill:#ff0000;stroke:none"
             transform="translate(214.2229,217.4417)"
             id="path1886" /><path
             d="m 0,-4 c -2.2091,0 -4,1.7909 -4,4 0,2.2091 1.7909,4 4,4 C 2.2091,4 4,2.2091 4,0 V 0 C 4,-2.2091 2.2091,-4 0,-4 Z"
             style="fill:#ff0000;stroke:none"
             transform="translate(206.5688,211.6458)"
             id="path1888" /><path
             d="m 0,-4 c -2.2091,0 -4,1.7909 -4,4 0,2.2091 1.7909,4 4,4 C 2.2091,4 4,2.2091 4,0 V 0 C 4,-2.2091 2.2091,-4 0,-4 Z"
             style="fill:#ff0000;stroke:none"
             transform="translate(199.4089,205.7417)"
             id="path1890" /><path
             d="m 0,-4 c -2.2091,0 -4,1.7909 -4,4 0,2.2091 1.7909,4 4,4 C 2.2091,4 4,2.2091 4,0 V 0 C 4,-2.2091 2.2091,-4 0,-4 Z"
             style="fill:#ff0000;stroke:none"
             transform="translate(192.6832,197.2104)"
             id="path1892" /><path
             d="m 0,-4 c -2.2091,0 -4,1.7909 -4,4 0,2.2091 1.7909,4 4,4 C 2.2091,4 4,2.2091 4,0 V 0 C 4,-2.2091 2.2091,-4 0,-4 Z"
             style="fill:#ff0000;stroke:none"
             transform="translate(186.342,191.55)"
             id="path1894" /><path
             d="m 0,-4 c -2.2091,0 -4,1.7909 -4,4 0,2.2091 1.7909,4 4,4 C 2.2091,4 4,2.2091 4,0 V 0 C 4,-2.2091 2.2091,-4 0,-4 Z"
             style="fill:#ff0000;stroke:none"
             transform="translate(180.3438,188.5437)"
             id="path1896" /><path
             d="m 0,-4 c -2.2091,0 -4,1.7909 -4,4 0,2.2091 1.7909,4 4,4 C 2.2091,4 4,2.2091 4,0 V 0 C 4,-2.2091 2.2091,-4 0,-4 Z"
             style="fill:#ff0000;stroke:none"
             transform="translate(174.6533,182.0437)"
             id="path1898" /><path
             d="m 0,-4 c -2.2091,0 -4,1.7909 -4,4 0,2.2091 1.7909,4 4,4 C 2.2091,4 4,2.2091 4,0 V 0 C 4,-2.2091 2.2091,-4 0,-4 Z"
             style="fill:#ff0000;stroke:none"
             transform="translate(169.2406,175.7875)"
             id="path1900" /><path
             d="m 0,-4 c -2.2091,0 -4,1.7909 -4,4 0,2.2091 1.7909,4 4,4 C 2.2091,4 4,2.2091 4,0 V 0 C 4,-2.2091 2.2091,-4 0,-4 Z"
             style="fill:#ff0000;stroke:none"
             transform="translate(164.0796,169.9917)"
             id="path1902" /><path
             d="m 0,-4 c -2.2091,0 -4,1.7909 -4,4 0,2.2091 1.7909,4 4,4 C 2.2091,4 4,2.2091 4,0 V 0 C 4,-2.2091 2.2091,-4 0,-4 Z"
             style="fill:#ff0000;stroke:none"
             transform="translate(159.1481,164.5208)"
             id="path1904" /><path
             d="m 0,-4 c -2.2091,0 -4,1.7909 -4,4 0,2.2091 1.7909,4 4,4 C 2.2091,4 4,2.2091 4,0 V 0 C 4,-2.2091 2.2091,-4 0,-4 Z"
             style="fill:#ff0000;stroke:none"
             transform="translate(154.4266,159.2125)"
             id="path1906" /><path
             d="m 0,-4 c -2.2091,0 -4,1.7909 -4,4 0,2.2091 1.7909,4 4,4 C 2.2091,4 4,2.2091 4,0 V 0 C 4,-2.2091 2.2091,-4 0,-4 Z"
             style="fill:#ff0000;stroke:none"
             transform="translate(149.8978,154.2833)"
             id="path1908" /><path
             d="m 0,-4 c -2.2091,0 -4,1.7909 -4,4 0,2.2091 1.7909,4 4,4 C 2.2091,4 4,2.2091 4,0 V 0 C 4,-2.2091 2.2091,-4 0,-4 Z"
             style="fill:#ff0000;stroke:none"
             transform="translate(145.5466,148.7042)"
             id="path1910" /><path
             d="m 0,-4 c -2.2091,0 -4,1.7909 -4,4 0,2.2091 1.7909,4 4,4 C 2.2091,4 4,2.2091 4,0 V 0 C 4,-2.2091 2.2091,-4 0,-4 Z"
             style="fill:#ff0000;stroke:none"
             transform="translate(141.3597,143.2875)"
             id="path1912" /><path
             d="m 0,-4 c -2.2091,0 -4,1.7909 -4,4 0,2.2091 1.7909,4 4,4 C 2.2091,4 4,2.2091 4,0 V 0 C 4,-2.2091 2.2091,-4 0,-4 Z"
             style="fill:#ff0000;stroke:none"
             transform="translate(137.3251,138.4937)"
             id="path1914" /><path
             d="m 0,-4 c -2.2091,0 -4,1.7909 -4,4 0,2.2091 1.7909,4 4,4 C 2.2091,4 4,2.2091 4,0 V 0 C 4,-2.2091 2.2091,-4 0,-4 Z"
             style="fill:#ff0000;stroke:none"
             transform="translate(133.4321,134.0792)"
             id="path1916" /><path
             d="m 0,-4 c -2.2091,0 -4,1.7909 -4,4 0,2.2091 1.7909,4 4,4 C 2.2091,4 4,2.2091 4,0 V 0 C 4,-2.2091 2.2091,-4 0,-4 Z"
             style="fill:#ff0000;stroke:none"
             transform="translate(129.671,127.2812)"
             id="path1918" /><path
             d="m 0,-4 c -2.2091,0 -4,1.7909 -4,4 0,2.2091 1.7909,4 4,4 C 2.2091,4 4,2.2091 4,0 V 0 C 4,-2.2091 2.2091,-4 0,-4 Z"
             style="fill:#ff0000;stroke:none"
             transform="translate(126.0333,121.5125)"
             id="path1920" /><path
             d="m 0,-4 c -2.2091,0 -4,1.7909 -4,4 0,2.2091 1.7909,4 4,4 C 2.2091,4 4,2.2091 4,0 V 0 C 4,-2.2091 2.2091,-4 0,-4 Z"
             style="fill:#ff0000;stroke:none"
             transform="translate(122.5111,117.2333)"
             id="path1922" /><path
             d="m 0,-4 c -2.2091,0 -4,1.7909 -4,4 0,2.2091 1.7909,4 4,4 C 2.2091,4 4,2.2091 4,0 V 0 C 4,-2.2091 2.2091,-4 0,-4 Z"
             style="fill:#ff0000;stroke:none"
             transform="translate(119.0973,112.9271)"
             id="path1924" /><path
             d="m 0,-4 c -2.2091,0 -4,1.7909 -4,4 0,2.2091 1.7909,4 4,4 C 2.2091,4 4,2.2091 4,0 V 0 C 4,-2.2091 2.2091,-4 0,-4 Z"
             style="fill:#ff0000;stroke:none"
             transform="translate(115.7854,107.6188)"
             id="path1926" /><path
             d="m 0,-4 c -2.2091,0 -4,1.7909 -4,4 0,2.2091 1.7909,4 4,4 C 2.2091,4 4,2.2091 4,0 V 0 C 4,-2.2091 2.2091,-4 0,-4 Z"
             style="fill:#ff0000;stroke:none"
             transform="translate(112.5695,103.6917)"
             id="path1928" /><path
             d="m 0,-4 c -2.2091,0 -4,1.7909 -4,4 0,2.2091 1.7909,4 4,4 C 2.2091,4 4,2.2091 4,0 V 0 C 4,-2.2091 2.2091,-4 0,-4 Z"
             style="fill:#ff0000;stroke:none"
             transform="translate(109.4443,97.625)"
             id="path1930" /><path
             d="m 0,-4 c -2.2091,0 -4,1.7909 -4,4 0,2.2091 1.7909,4 4,4 C 2.2091,4 4,2.2091 4,0 V 0 C 4,-2.2091 2.2091,-4 0,-4 Z"
             style="fill:#ff0000;stroke:none"
             transform="translate(106.4046,93.1292)"
             id="path1932" /><path
             d="m 0,-4 c -2.2091,0 -4,1.7909 -4,4 0,2.2091 1.7909,4 4,4 C 2.2091,4 4,2.2091 4,0 V 0 C 4,-2.2091 2.2091,-4 0,-4 Z"
             style="fill:#ff0000;stroke:none"
             transform="translate(103.446,87.2792)"
             id="path1934" /><path
             d="m 0,-4 c -2.2091,0 -4,1.7909 -4,4 0,2.2091 1.7909,4 4,4 C 2.2091,4 4,2.2091 4,0 V 0 C 4,-2.2091 2.2091,-4 0,-4 Z"
             style="fill:#ff0000;stroke:none"
             transform="translate(100.5643,81.2396)"
             id="path1936" /><path
             d="m 0,-4 c -2.2091,0 -4,1.7909 -4,4 0,2.2091 1.7909,4 4,4 C 2.2091,4 4,2.2091 4,0 V 0 C 4,-2.2091 2.2091,-4 0,-4 Z"
             style="fill:#ff0000;stroke:none"
             transform="translate(97.7556,77.6917)"
             id="path1938" /><path
             d="m 0,-4 c -2.2091,0 -4,1.7909 -4,4 0,2.2091 1.7909,4 4,4 C 2.2091,4 4,2.2091 4,0 V 0 C 4,-2.2091 2.2091,-4 0,-4 Z"
             style="fill:#ff0000;stroke:none"
             transform="translate(95.0162,72.3292)"
             id="path1940" /><path
             d="m 0,-4 c -2.2091,0 -4,1.7909 -4,4 0,2.2091 1.7909,4 4,4 C 2.2091,4 4,2.2091 4,0 V 0 C 4,-2.2091 2.2091,-4 0,-4 Z"
             style="fill:#ff0000;stroke:none"
             transform="translate(92.3428,68.8083)"
             id="path1942" /><path
             d="m 0,-4 c -2.2091,0 -4,1.7909 -4,4 0,2.2091 1.7909,4 4,4 C 2.2091,4 4,2.2091 4,0 V 0 C 4,-2.2091 2.2091,-4 0,-4 Z"
             style="fill:#ff0000;stroke:none"
             transform="translate(89.7323,63.7438)"
             id="path1944" /><path
             d="m 0,-4 c -2.2091,0 -4,1.7909 -4,4 0,2.2091 1.7909,4 4,4 C 2.2091,4 4,2.2091 4,0 V 0 C 4,-2.2091 2.2091,-4 0,-4 Z"
             style="fill:#ff0000;stroke:none"
             transform="translate(87.1818,58.7333)"
             id="path1946" /><path
             d="m 0,-4 c -2.2091,0 -4,1.7909 -4,4 0,2.2091 1.7909,4 4,4 C 2.2091,4 4,2.2091 4,0 V 0 C 4,-2.2091 2.2091,-4 0,-4 Z"
             style="fill:#ff0000;stroke:none"
             transform="translate(84.6887,54.0479)"
             id="path1948" /><path
             d="m 0,-4 c -2.2091,0 -4,1.7909 -4,4 0,2.2091 1.7909,4 4,4 C 2.2091,4 4,2.2091 4,0 V 0 C 4,-2.2091 2.2091,-4 0,-4 Z"
             style="fill:#ff0000;stroke:none"
             transform="translate(82.2504,49.4167)"
             id="path1950" /><path
             d="m 0,-4 c -2.2091,0 -4,1.7909 -4,4 0,2.2091 1.7909,4 4,4 C 2.2091,4 4,2.2091 4,0 V 0 C 4,-2.2091 2.2091,-4 0,-4 Z"
             style="fill:#ff0000;stroke:none"
             transform="translate(79.8645,45.1646)"
             id="path1952" /><path
             d="m 0,-4 c -2.2091,0 -4,1.7909 -4,4 0,2.2091 1.7909,4 4,4 C 2.2091,4 4,2.2091 4,0 V 0 C 4,-2.2091 2.2091,-4 0,-4 Z"
             style="fill:#ff0000;stroke:none"
             transform="translate(77.5288,39.9917)"
             id="path1954" /><path
             d="m 0,-4 c -2.2091,0 -4,1.7909 -4,4 0,2.2091 1.7909,4 4,4 C 2.2091,4 4,2.2091 4,0 V 0 C 4,-2.2091 2.2091,-4 0,-4 Z"
             style="fill:#ff0000;stroke:none"
             transform="translate(75.2413,35.0896)"
             id="path1956" /></g><g
           style="color-interpolation:sRGB;fill:#ffffff;stroke:#ffffff;color-rendering:optimizeSpeed;image-rendering:optimizeSpeed;shape-rendering:crispEdges;text-rendering:optimizeSpeed"
           id="g1962"><path
             style="stroke:none"
             d="M 499,128 V 39 H 292 v 89 z"
             id="path1960" /></g><g
           transform="translate(329,61)"
           style="font-size:20px;font-family:'Helvetica Neue';color-interpolation:linearRGB;color-rendering:optimizeQuality;image-rendering:optimizeQuality;text-rendering:geometricPrecision"
           id="g1966"><path
             style="stroke:none"
             d="M 1.6,-14.28 V 0 H 3.4 V -11.88 H 3.44 L 7.9,0 h 1.62 l 4.46,-11.88 h 0.04 V 0 h 1.8 v -14.28 h -2.6 l -4.52,12 -4.5,-12 z"
             id="path1964" /></g><g
           transform="translate(347,71)"
           style="font-size:16px;font-family:'Helvetica Neue';color-interpolation:linearRGB;color-rendering:optimizeQuality;image-rendering:optimizeQuality;text-rendering:geometricPrecision"
           id="g1970"><path
             style="stroke:none"
             d="m 1.856,-2.608 h -1.36 q 0.032,0.768 0.32,1.304 0.288,0.536 0.768,0.864 0.48,0.328 1.104,0.472 0.624,0.144 1.312,0.144 0.624,0 1.256,-0.12 0.632,-0.12 1.136,-0.424 0.504,-0.304 0.816,-0.8 Q 7.52,-1.664 7.52,-2.416 7.52,-3.008 7.288,-3.408 7.056,-3.808 6.68,-4.072 6.304,-4.336 5.816,-4.496 5.328,-4.656 4.816,-4.768 4.336,-4.88 3.856,-4.984 3.376,-5.088 2.992,-5.24 2.608,-5.392 2.36,-5.624 2.112,-5.856 2.112,-6.208 q 0,-0.32 0.16,-0.52 0.16,-0.2 0.416,-0.32 0.256,-0.12 0.568,-0.168 0.312,-0.048 0.616,-0.048 0.336,0 0.664,0.072 0.328,0.072 0.6,0.232 0.272,0.16 0.448,0.424 0.176,0.264 0.208,0.664 h 1.36 Q 7.104,-6.624 6.832,-7.128 6.56,-7.632 6.104,-7.928 5.648,-8.224 5.056,-8.344 4.464,-8.464 3.76,-8.464 q -0.544,0 -1.096,0.136 -0.552,0.136 -0.992,0.416 -0.44,0.28 -0.72,0.728 -0.28,0.448 -0.28,1.072 0,0.8 0.4,1.248 0.4,0.448 1,0.696 0.6,0.248 1.304,0.384 0.704,0.136 1.304,0.304 0.6,0.168 1,0.44 0.4,0.272 0.4,0.8 0,0.384 -0.192,0.632 Q 5.696,-1.36 5.4,-1.232 5.104,-1.104 4.752,-1.056 4.4,-1.008 4.08,-1.008 3.664,-1.008 3.272,-1.088 2.88,-1.168 2.568,-1.352 2.256,-1.536 2.064,-1.848 1.872,-2.16 1.856,-2.608 Z"
             id="path1968" /></g><g
           transform="translate(355,61)"
           style="font-size:20px;font-family:'Helvetica Neue';color-interpolation:linearRGB;color-rendering:optimizeQuality;image-rendering:optimizeQuality;text-rendering:geometricPrecision"
           id="g1974"><path
             style="stroke:none"
             d="m 9.64,3.94 h 1.3 Q 9.52,1.64 8.91,-0.62 8.3,-2.88 8.3,-5.4 q 0,-2.46 0.6,-4.7 0.6,-2.24 2.04,-4.52 h -1.3 q -1.56,2.06 -2.35,4.46 -0.79,2.4 -0.79,4.76 0,1.32 0.22,2.52 0.22,1.2 0.63,2.34 0.41,1.14 0.99,2.25 0.58,1.11 1.3,2.23 z m 4.74,-14.28 v -3.1 h -1.7 v 3.1 h -1.76 v 1.5 h 1.76 v 6.58 q 0,0.72 0.14,1.16 0.14,0.44 0.43,0.68 0.29,0.24 0.76,0.33 Q 14.48,0 15.14,0 h 1.3 v -1.5 h -0.78 q -0.4,0 -0.65,-0.03 -0.25,-0.03 -0.39,-0.13 -0.14,-0.1 -0.19,-0.28 -0.05,-0.18 -0.05,-0.48 v -6.42 h 2.06 v -1.5 z m 3.88,0 V 0 h 1.7 v -4.6 q 0,-1 0.2,-1.77 0.2,-0.77 0.64,-1.31 0.44,-0.54 1.16,-0.82 0.72,-0.28 1.74,-0.28 v -1.8 q -1.38,-0.04 -2.28,0.56 -0.9,0.6 -1.52,1.86 h -0.04 v -2.18 z M 33.54,0 v -10.34 h -1.7 v 5.84 q 0,0.7 -0.19,1.29 -0.19,0.59 -0.57,1.03 -0.38,0.44 -0.95,0.68 -0.57,0.24 -1.35,0.24 -0.98,0 -1.54,-0.56 -0.56,-0.56 -0.56,-1.52 v -7 h -1.7 v 6.8 q 0,0.84 0.17,1.53 0.17,0.69 0.59,1.19 0.42,0.5 1.1,0.77 0.68,0.27 1.7,0.27 1.14,0 1.98,-0.45 0.84,-0.45 1.38,-1.41 h 0.04 V 0 Z m 9.74,-6.16 h -5.94 q 0.04,-0.6 0.26,-1.13 0.22,-0.53 0.6,-0.93 0.38,-0.4 0.91,-0.63 0.53,-0.23 1.19,-0.23 0.64,0 1.17,0.23 0.53,0.23 0.92,0.62 0.39,0.39 0.62,0.93 0.23,0.54 0.27,1.14 z m 1.64,2.88 h -1.68 q -0.22,1.02 -0.91,1.52 -0.69,0.5 -1.77,0.5 -0.84,0 -1.46,-0.28 -0.62,-0.28 -1.02,-0.75 -0.4,-0.47 -0.58,-1.08 -0.18,-0.61 -0.16,-1.29 h 7.74 q 0.04,-0.94 -0.17,-1.98 -0.21,-1.04 -0.76,-1.92 -0.55,-0.88 -1.46,-1.45 -0.91,-0.57 -2.29,-0.57 -1.06,0 -1.95,0.4 -0.89,0.4 -1.54,1.12 -0.65,0.72 -1.01,1.7 -0.36,0.98 -0.36,2.16 0.04,1.18 0.35,2.18 0.31,1 0.93,1.72 0.62,0.72 1.53,1.12 0.91,0.4 2.15,0.4 1.76,0 2.92,-0.88 1.16,-0.88 1.5,-2.62 z m 7.48,-7.06 V 0 h 1.7 v -6.44 q 0,-0.3 0.15,-0.75 0.15,-0.45 0.48,-0.87 0.33,-0.42 0.86,-0.72 0.53,-0.3 1.27,-0.3 0.58,0 0.95,0.17 0.37,0.17 0.59,0.48 0.22,0.31 0.31,0.73 0.09,0.42 0.09,0.92 V 0 h 1.7 v -6.44 q 0,-1.2 0.72,-1.92 0.72,-0.72 1.98,-0.72 0.62,0 1.01,0.18 0.39,0.18 0.61,0.49 0.22,0.31 0.3,0.73 0.08,0.42 0.08,0.9 V 0 h 1.7 v -7.58 q 0,-0.8 -0.25,-1.37 -0.25,-0.57 -0.7,-0.93 -0.45,-0.36 -1.08,-0.53 -0.63,-0.17 -1.41,-0.17 -1.02,0 -1.87,0.46 -0.85,0.46 -1.37,1.3 -0.32,-0.96 -1.1,-1.36 -0.78,-0.4 -1.74,-0.4 -2.18,0 -3.34,1.76 H 54 v -1.52 z m 24.24,4.18 H 70.7 q 0.04,-0.6 0.26,-1.13 0.22,-0.53 0.6,-0.93 0.38,-0.4 0.91,-0.63 0.53,-0.23 1.19,-0.23 0.64,0 1.17,0.23 0.53,0.23 0.92,0.62 0.39,0.39 0.62,0.93 0.23,0.54 0.27,1.14 z m 1.64,2.88 H 76.6 q -0.22,1.02 -0.91,1.52 -0.69,0.5 -1.77,0.5 -0.84,0 -1.46,-0.28 -0.62,-0.28 -1.02,-0.75 -0.4,-0.47 -0.58,-1.08 -0.18,-0.61 -0.16,-1.29 h 7.74 q 0.04,-0.94 -0.17,-1.98 -0.21,-1.04 -0.76,-1.92 -0.55,-0.88 -1.46,-1.45 -0.91,-0.57 -2.29,-0.57 -1.06,0 -1.95,0.4 -0.89,0.4 -1.54,1.12 -0.65,0.72 -1.01,1.7 -0.36,0.98 -0.36,2.16 0.04,1.18 0.35,2.18 0.31,1 0.93,1.72 0.62,0.72 1.53,1.12 0.91,0.4 2.15,0.4 1.76,0 2.92,-0.88 1.16,-0.88 1.5,-2.62 z m 11.08,3.24 q -0.44,0.26 -1.22,0.26 -0.66,0 -1.05,-0.37 -0.39,-0.37 -0.39,-1.21 -0.7,0.84 -1.63,1.21 -0.93,0.37 -2.01,0.37 -0.7,0 -1.33,-0.16 -0.63,-0.16 -1.09,-0.5 -0.46,-0.34 -0.73,-0.89 -0.27,-0.55 -0.27,-1.33 0,-0.88 0.3,-1.44 0.3,-0.56 0.79,-0.91 0.49,-0.35 1.12,-0.53 0.63,-0.18 1.29,-0.3 0.7,-0.14 1.33,-0.21 0.63,-0.07 1.11,-0.2 0.48,-0.13 0.76,-0.38 0.28,-0.25 0.28,-0.73 0,-0.56 -0.21,-0.9 -0.21,-0.34 -0.54,-0.52 -0.33,-0.18 -0.74,-0.24 -0.41,-0.06 -0.81,-0.06 -1.08,0 -1.8,0.41 -0.72,0.41 -0.78,1.55 h -1.7 q 0.04,-0.96 0.4,-1.62 0.36,-0.66 0.96,-1.07 0.6,-0.41 1.37,-0.59 0.77,-0.18 1.65,-0.18 0.7,0 1.39,0.1 0.69,0.1 1.25,0.41 0.56,0.31 0.9,0.87 0.34,0.56 0.34,1.46 v 5.32 q 0,0.6 0.07,0.88 0.07,0.28 0.47,0.28 0.22,0 0.52,-0.1 z m -2.76,-5.3 q -0.32,0.24 -0.84,0.35 -0.52,0.11 -1.09,0.18 -0.57,0.07 -1.15,0.16 -0.58,0.09 -1.04,0.29 -0.46,0.2 -0.75,0.57 -0.29,0.37 -0.29,1.01 0,0.42 0.17,0.71 0.17,0.29 0.44,0.47 0.27,0.18 0.63,0.26 0.36,0.08 0.76,0.08 0.84,0 1.44,-0.23 0.6,-0.23 0.98,-0.58 0.38,-0.35 0.56,-0.76 0.18,-0.41 0.18,-0.77 z m 4.34,-5 V 0 h 1.7 v -5.84 q 0,-0.7 0.19,-1.29 0.19,-0.59 0.57,-1.03 0.38,-0.44 0.95,-0.68 0.57,-0.24 1.35,-0.24 0.98,0 1.54,0.56 0.56,0.56 0.56,1.52 v 7 h 1.7 v -6.8 q 0,-0.84 -0.17,-1.53 -0.17,-0.69 -0.59,-1.19 -0.42,-0.5 -1.1,-0.78 -0.68,-0.28 -1.7,-0.28 -2.3,0 -3.36,1.88 h -0.04 v -1.64 z m 9.66,14.28 h 1.28 q 1.56,-2.06 2.35,-4.45 0.79,-2.39 0.79,-4.75 0,-1.32 -0.22,-2.52 -0.22,-1.2 -0.63,-2.35 -0.41,-1.15 -0.99,-2.26 -0.58,-1.11 -1.3,-2.23 h -1.28 q 1.4,2.3 2.01,4.57 0.61,2.27 0.61,4.79 0,2.44 -0.6,4.69 -0.6,2.25 -2.02,4.51 z"
             id="path1972" /></g><g
           style="color-interpolation:linearRGB;fill:#ff00ff;stroke:#ff00ff;stroke-width:4;stroke-linecap:butt;stroke-linejoin:round;color-rendering:optimizeQuality;image-rendering:optimizeQuality;text-rendering:geometricPrecision"
           id="g1978"><line
             y2="58"
             style="fill:none"
             x1="296"
             x2="326"
             y1="58"
             id="line1976" /></g><g
           transform="translate(329,96)"
           style="font-size:20px;font-family:mwb_cmmi10;color-interpolation:linearRGB;color-rendering:optimizeQuality;image-rendering:optimizeQuality;text-rendering:geometricPrecision"
           id="g1982"><path
             style="stroke:none"
             d="M 0.5312,3.875 Q 0.4844,3.875 0.4219,3.7969 0.375,3.7344 0.375,3.6875 l 3.0781,-12.375 q 0.2657,-0.9844 0.7657,-1.9219 0.5156,-0.9375 1.2812,-1.75 0.7656,-0.8125 1.6875,-1.2812 0.9219,-0.4688 1.9531,-0.4688 0.75,0 1.3438,0.3282 0.5937,0.3281 0.9375,0.9218 0.3593,0.5938 0.3593,1.3282 0,0.7187 -0.2812,1.375 -0.2656,0.6406 -0.7656,1.2031 -0.4844,0.5625 -1.0313,0.9219 0.3125,0.2031 0.5625,0.5156 0.2656,0.3125 0.4219,0.6718 0.1563,0.3438 0.2344,0.7657 0.0937,0.4219 0.0937,0.7969 0,1.0156 -0.4375,2.0156 -0.4375,1 -1.2031,1.8125 -0.75,0.8125 -1.7344,1.2812 -0.9687,0.4688 -2,0.4688 -1.125,0 -2.0312,-0.6094 -0.8906,-0.6094 -1.2188,-1.6719 l -1.4531,5.75 q 0,0.1094 -0.1563,0.1094 z M 5.6875,-0.25 q 0.8906,0 1.6094,-0.5781 0.7343,-0.5938 1.2031,-1.4844 0.4844,-0.9063 0.7344,-1.9063 0.25,-1 0.25,-1.8124 0,-1.0157 -0.5938,-1.6094 -0.6718,0.25 -1.3281,0.25 -1.5781,0 -1.5781,-0.5313 0,-0.7031 1.7968,-0.7031 0.6407,0 1.1876,0.2031 0.4218,-0.3281 0.7656,-0.9687 0.3594,-0.6563 0.5312,-1.3594 0.1875,-0.7031 0.1875,-1.3125 0,-0.6563 -0.3437,-1.0781 -0.3438,-0.4375 -1,-0.4375 -1.2344,0 -2.2813,0.75 -1.0469,0.75 -1.7656,1.9062 -0.7187,1.1407 -1.0313,2.3594 l -1.1093,4.4219 q -0.1094,0.4531 -0.1407,1.0312 0,1.25 0.8126,2.0625 0.8281,0.7969 2.0937,0.7969 z m 0.8906,-7.7344 q 0.3125,0.0782 1,0.0782 0.3438,0 0.6875,-0.1094 Q 8.25,-8.0312 8.1875,-8.0312 7.9688,-8.0938 7.7188,-8.0938 q -0.9063,0 -1.1407,0.1094 z"
             id="path1980" /></g><g
           transform="translate(341,96)"
           style="font-size:20px;font-family:'Helvetica Neue';color-interpolation:linearRGB;color-rendering:optimizeQuality;image-rendering:optimizeQuality;text-rendering:geometricPrecision"
           id="g1986"><path
             style="stroke:none"
             d="m 0.96,-3.72 v 1.36 H 11.04 V -3.72 Z M 11.04,-6.4 V -7.76 H 0.96 v 1.36 z m 3.6,-0.58 q 0,-0.52 0.01,-1.15 0.01,-0.63 0.1,-1.26 0.09,-0.63 0.26,-1.23 0.17,-0.6 0.5,-1.05 0.33,-0.45 0.83,-0.73 0.5,-0.28 1.22,-0.28 0.72,0 1.22,0.28 0.5,0.28 0.83,0.73 0.33,0.45 0.5,1.05 0.17,0.6 0.26,1.23 0.09,0.63 0.1,1.26 0.01,0.63 0.01,1.15 0,0.8 -0.05,1.79 -0.05,0.99 -0.32,1.86 -0.27,0.87 -0.87,1.47 -0.6,0.6 -1.68,0.6 -1.08,0 -1.68,-0.6 -0.6,-0.6 -0.87,-1.47 -0.27,-0.87 -0.32,-1.86 -0.05,-0.99 -0.05,-1.79 z m -1.8,0.02 q 0,0.78 0.04,1.62 0.04,0.84 0.2,1.64 0.16,0.8 0.46,1.51 0.3,0.71 0.82,1.25 0.52,0.54 1.31,0.85 0.79,0.31 1.89,0.31 1.12,0 1.9,-0.31 0.78,-0.31 1.3,-0.85 0.52,-0.54 0.82,-1.25 0.3,-0.71 0.46,-1.51 0.16,-0.8 0.2,-1.64 0.04,-0.84 0.04,-1.62 0,-0.78 -0.04,-1.62 -0.04,-0.84 -0.2,-1.64 -0.16,-0.8 -0.46,-1.52 -0.3,-0.72 -0.82,-1.26 -0.52,-0.54 -1.31,-0.86 -0.79,-0.32 -1.89,-0.32 -1.1,0 -1.89,0.32 -0.79,0.32 -1.31,0.86 -0.52,0.54 -0.82,1.26 -0.3,0.72 -0.46,1.52 -0.16,0.8 -0.2,1.64 -0.04,0.84 -0.04,1.62 z m 19.92,10.9 h 1.3 q -1.42,-2.3 -2.03,-4.56 -0.61,-2.26 -0.61,-4.78 0,-2.46 0.6,-4.7 0.6,-2.24 2.04,-4.52 h -1.3 q -1.56,2.06 -2.35,4.46 -0.79,2.4 -0.79,4.76 0,1.32 0.22,2.52 0.22,1.2 0.63,2.34 0.41,1.14 0.99,2.25 0.58,1.11 1.3,2.23 z m 3.42,-7.2 h -1.7 q 0.04,0.96 0.4,1.63 0.36,0.67 0.96,1.08 0.6,0.41 1.38,0.59 0.78,0.18 1.64,0.18 0.78,0 1.57,-0.15 0.79,-0.15 1.42,-0.53 0.63,-0.38 1.02,-1 0.39,-0.62 0.39,-1.56 0,-0.74 -0.29,-1.24 -0.29,-0.5 -0.76,-0.83 -0.47,-0.33 -1.08,-0.53 -0.61,-0.2 -1.25,-0.34 -0.6,-0.14 -1.2,-0.27 -0.6,-0.13 -1.08,-0.32 -0.48,-0.19 -0.79,-0.48 -0.31,-0.29 -0.31,-0.73 0,-0.4 0.2,-0.65 0.2,-0.25 0.52,-0.4 0.32,-0.15 0.71,-0.21 0.39,-0.06 0.77,-0.06 0.42,0 0.83,0.09 0.41,0.09 0.75,0.29 0.34,0.2 0.56,0.53 0.22,0.33 0.26,0.83 h 1.7 q -0.06,-0.94 -0.4,-1.57 -0.34,-0.63 -0.91,-1 -0.57,-0.37 -1.31,-0.52 -0.74,-0.15 -1.62,-0.15 -0.68,0 -1.37,0.17 -0.69,0.17 -1.24,0.52 -0.55,0.35 -0.9,0.91 -0.35,0.56 -0.35,1.34 0,1 0.5,1.56 0.5,0.56 1.25,0.87 0.75,0.31 1.63,0.48 0.88,0.17 1.63,0.38 0.75,0.21 1.25,0.55 0.5,0.34 0.5,1 0,0.48 -0.24,0.79 -0.24,0.31 -0.61,0.47 -0.37,0.16 -0.81,0.22 -0.44,0.06 -0.84,0.06 -0.52,0 -1.01,-0.1 -0.49,-0.1 -0.88,-0.33 -0.39,-0.23 -0.63,-0.62 -0.24,-0.39 -0.26,-0.95 z m 11.32,-7.08 v -3.1 h -1.7 v 3.1 h -1.76 v 1.5 h 1.76 v 6.58 q 0,0.72 0.14,1.16 0.14,0.44 0.43,0.68 0.29,0.24 0.76,0.33 Q 47.6,0 48.26,0 h 1.3 v -1.5 h -0.78 q -0.4,0 -0.65,-0.03 -0.25,-0.03 -0.39,-0.13 -0.14,-0.1 -0.19,-0.28 -0.05,-0.18 -0.05,-0.48 v -6.42 h 2.06 v -1.5 z m 13.1,10.3 q -0.44,0.26 -1.22,0.26 -0.66,0 -1.05,-0.37 -0.39,-0.37 -0.39,-1.21 -0.7,0.84 -1.63,1.21 -0.93,0.37 -2.01,0.37 -0.7,0 -1.33,-0.16 -0.63,-0.16 -1.09,-0.5 -0.46,-0.34 -0.73,-0.89 -0.27,-0.55 -0.27,-1.33 0,-0.88 0.3,-1.44 0.3,-0.56 0.79,-0.91 0.49,-0.35 1.12,-0.53 0.63,-0.18 1.29,-0.3 0.7,-0.14 1.33,-0.21 0.63,-0.07 1.11,-0.2 0.48,-0.13 0.76,-0.38 0.28,-0.25 0.28,-0.73 0,-0.56 -0.21,-0.9 -0.21,-0.34 -0.54,-0.52 -0.33,-0.18 -0.74,-0.24 -0.41,-0.06 -0.81,-0.06 -1.08,0 -1.8,0.41 -0.72,0.41 -0.78,1.55 h -1.7 q 0.04,-0.96 0.4,-1.62 0.36,-0.66 0.96,-1.07 0.6,-0.41 1.37,-0.59 0.77,-0.18 1.65,-0.18 0.7,0 1.39,0.1 0.69,0.1 1.25,0.41 0.56,0.31 0.9,0.87 0.34,0.56 0.34,1.46 v 5.32 q 0,0.6 0.07,0.88 0.07,0.28 0.47,0.28 0.22,0 0.52,-0.1 z m -2.76,-5.3 q -0.32,0.24 -0.84,0.35 -0.52,0.11 -1.09,0.18 -0.57,0.07 -1.15,0.16 -0.58,0.09 -1.04,0.29 -0.46,0.2 -0.75,0.57 -0.29,0.37 -0.29,1.01 0,0.42 0.17,0.71 0.17,0.29 0.44,0.47 0.27,0.18 0.63,0.26 0.36,0.08 0.76,0.08 0.84,0 1.44,-0.23 0.6,-0.23 0.98,-0.58 0.38,-0.35 0.56,-0.76 0.18,-0.41 0.18,-0.77 z m 4.34,-5 V 0 h 1.7 v -5.84 q 0,-0.7 0.19,-1.29 0.19,-0.59 0.57,-1.03 0.38,-0.44 0.95,-0.68 0.57,-0.24 1.35,-0.24 0.98,0 1.54,0.56 0.56,0.56 0.56,1.52 v 7 h 1.7 v -6.8 q 0,-0.84 -0.17,-1.53 -0.17,-0.69 -0.59,-1.19 -0.42,-0.5 -1.1,-0.78 -0.68,-0.28 -1.7,-0.28 -2.3,0 -3.36,1.88 h -0.04 v -1.64 z m 12.36,5.26 q 0,-0.76 0.16,-1.48 0.16,-0.72 0.52,-1.28 0.36,-0.56 0.96,-0.9 0.6,-0.34 1.46,-0.34 0.88,0 1.5,0.33 0.62,0.33 1.01,0.87 0.39,0.54 0.57,1.25 0.18,0.71 0.18,1.47 0,0.72 -0.17,1.42 -0.17,0.7 -0.55,1.25 -0.38,0.55 -0.98,0.89 -0.6,0.34 -1.46,0.34 -0.82,0 -1.43,-0.32 -0.61,-0.32 -1,-0.86 -0.39,-0.54 -0.58,-1.23 -0.19,-0.69 -0.19,-1.41 z m 8,5.08 v -14.28 h -1.7 v 5.32 H 80.8 q -0.28,-0.46 -0.69,-0.77 -0.41,-0.31 -0.87,-0.5 -0.46,-0.19 -0.92,-0.27 -0.46,-0.08 -0.86,-0.08 -1.18,0 -2.07,0.43 -0.89,0.43 -1.48,1.16 -0.59,0.73 -0.88,1.71 -0.29,0.98 -0.29,2.08 0,1.1 0.3,2.08 0.3,0.98 0.89,1.72 0.59,0.74 1.48,1.18 0.89,0.44 2.09,0.44 1.08,0 1.98,-0.38 0.9,-0.38 1.32,-1.24 h 0.04 V 0 Z m 11.78,-0.04 q -0.44,0.26 -1.22,0.26 -0.66,0 -1.05,-0.37 -0.39,-0.37 -0.39,-1.21 -0.7,0.84 -1.63,1.21 -0.93,0.37 -2.01,0.37 -0.7,0 -1.33,-0.16 -0.63,-0.16 -1.09,-0.5 -0.46,-0.34 -0.73,-0.89 -0.27,-0.55 -0.27,-1.33 0,-0.88 0.3,-1.44 0.3,-0.56 0.79,-0.91 0.49,-0.35 1.12,-0.53 0.63,-0.18 1.29,-0.3 0.7,-0.14 1.33,-0.21 0.63,-0.07 1.11,-0.2 0.48,-0.13 0.76,-0.38 0.28,-0.25 0.28,-0.73 0,-0.56 -0.21,-0.9 -0.21,-0.34 -0.54,-0.52 -0.33,-0.18 -0.74,-0.24 -0.41,-0.06 -0.81,-0.06 -1.08,0 -1.8,0.41 -0.72,0.41 -0.78,1.55 H 85 q 0.04,-0.96 0.4,-1.62 0.36,-0.66 0.96,-1.07 0.6,-0.41 1.37,-0.59 0.77,-0.18 1.65,-0.18 0.7,0 1.39,0.1 0.69,0.1 1.25,0.41 0.56,0.31 0.9,0.87 0.34,0.56 0.34,1.46 v 5.32 q 0,0.6 0.07,0.88 0.07,0.28 0.47,0.28 0.22,0 0.52,-0.1 z m -2.76,-5.3 q -0.32,0.24 -0.84,0.35 -0.52,0.11 -1.09,0.18 -0.57,0.07 -1.15,0.16 -0.58,0.09 -1.04,0.29 -0.46,0.2 -0.75,0.57 -0.29,0.37 -0.29,1.01 0,0.42 0.17,0.71 0.17,0.29 0.44,0.47 0.27,0.18 0.63,0.26 0.36,0.08 0.76,0.08 0.84,0 1.44,-0.23 0.6,-0.23 0.98,-0.58 0.38,-0.35 0.56,-0.76 0.18,-0.41 0.18,-0.77 z m 4.28,-5 V 0 h 1.7 v -4.6 q 0,-1 0.2,-1.77 0.2,-0.77 0.64,-1.31 0.44,-0.54 1.16,-0.82 0.72,-0.28 1.74,-0.28 v -1.8 q -1.38,-0.04 -2.28,0.56 -0.9,0.6 -1.52,1.86 h -0.04 v -2.18 z m 7.96,5.26 q 0,-0.76 0.16,-1.48 0.16,-0.72 0.52,-1.28 0.36,-0.56 0.96,-0.9 0.6,-0.34 1.46,-0.34 0.88,0 1.5,0.33 0.62,0.33 1.01,0.87 0.39,0.54 0.57,1.25 0.18,0.71 0.18,1.47 0,0.72 -0.17,1.42 -0.17,0.7 -0.55,1.25 -0.38,0.55 -0.98,0.89 -0.6,0.34 -1.46,0.34 -0.82,0 -1.43,-0.32 -0.61,-0.32 -1,-0.86 -0.39,-0.54 -0.58,-1.23 -0.19,-0.69 -0.19,-1.41 z m 8,5.08 v -14.28 h -1.7 v 5.32 h -0.04 q -0.28,-0.46 -0.69,-0.77 -0.41,-0.31 -0.87,-0.5 -0.46,-0.19 -0.92,-0.27 -0.46,-0.08 -0.86,-0.08 -1.18,0 -2.07,0.43 -0.89,0.43 -1.48,1.16 -0.59,0.73 -0.88,1.71 -0.29,0.98 -0.29,2.08 0,1.1 0.3,2.08 0.3,0.98 0.89,1.72 0.59,0.74 1.48,1.18 0.89,0.44 2.09,0.44 1.08,0 1.98,-0.38 0.9,-0.38 1.32,-1.24 h 0.04 V 0 Z m 1.16,3.94 h 1.28 q 1.56,-2.06 2.35,-4.45 0.79,-2.39 0.79,-4.75 0,-1.32 -0.22,-2.52 -0.22,-1.2 -0.63,-2.35 -0.41,-1.15 -0.99,-2.26 -0.58,-1.11 -1.3,-2.23 h -1.28 q 1.4,2.3 2.01,4.57 0.61,2.27 0.61,4.79 0,2.44 -0.6,4.69 -0.6,2.25 -2.02,4.51 z"
             id="path1984" /></g><g
           transform="translate(311,88)"
           style="color-interpolation:linearRGB;fill:#ff0000;stroke:#ff0000;stroke-width:4;stroke-linecap:butt;stroke-linejoin:round;color-rendering:optimizeQuality;image-rendering:optimizeQuality;text-rendering:geometricPrecision"
           id="g1990"><path
             style="stroke:none"
             d="m 0,-4 c -2.2091,0 -4,1.7909 -4,4 0,2.2091 1.7909,4 4,4 C 2.2091,4 4,2.2091 4,0 V 0 C 4,-2.2091 2.2091,-4 0,-4 Z"
             id="path1988" /></g><g
           transform="translate(329,122)"
           style="font-size:20px;font-family:mwb_cmmi10;color-interpolation:linearRGB;color-rendering:optimizeQuality;image-rendering:optimizeQuality;text-rendering:geometricPrecision"
           id="g1994"><path
             style="stroke:none"
             d="M 0.5312,3.875 Q 0.4844,3.875 0.4219,3.7969 0.375,3.7344 0.375,3.6875 l 3.0781,-12.375 q 0.2657,-0.9844 0.7657,-1.9219 0.5156,-0.9375 1.2812,-1.75 0.7656,-0.8125 1.6875,-1.2812 0.9219,-0.4688 1.9531,-0.4688 0.75,0 1.3438,0.3282 0.5937,0.3281 0.9375,0.9218 0.3593,0.5938 0.3593,1.3282 0,0.7187 -0.2812,1.375 -0.2656,0.6406 -0.7656,1.2031 -0.4844,0.5625 -1.0313,0.9219 0.3125,0.2031 0.5625,0.5156 0.2656,0.3125 0.4219,0.6718 0.1563,0.3438 0.2344,0.7657 0.0937,0.4219 0.0937,0.7969 0,1.0156 -0.4375,2.0156 -0.4375,1 -1.2031,1.8125 -0.75,0.8125 -1.7344,1.2812 -0.9687,0.4688 -2,0.4688 -1.125,0 -2.0312,-0.6094 -0.8906,-0.6094 -1.2188,-1.6719 l -1.4531,5.75 q 0,0.1094 -0.1563,0.1094 z M 5.6875,-0.25 q 0.8906,0 1.6094,-0.5781 0.7343,-0.5938 1.2031,-1.4844 0.4844,-0.9063 0.7344,-1.9063 0.25,-1 0.25,-1.8124 0,-1.0157 -0.5938,-1.6094 -0.6718,0.25 -1.3281,0.25 -1.5781,0 -1.5781,-0.5313 0,-0.7031 1.7968,-0.7031 0.6407,0 1.1876,0.2031 0.4218,-0.3281 0.7656,-0.9687 0.3594,-0.6563 0.5312,-1.3594 0.1875,-0.7031 0.1875,-1.3125 0,-0.6563 -0.3437,-1.0781 -0.3438,-0.4375 -1,-0.4375 -1.2344,0 -2.2813,0.75 -1.0469,0.75 -1.7656,1.9062 -0.7187,1.1407 -1.0313,2.3594 l -1.1093,4.4219 q -0.1094,0.4531 -0.1407,1.0312 0,1.25 0.8126,2.0625 0.8281,0.7969 2.0937,0.7969 z m 0.8906,-7.7344 q 0.3125,0.0782 1,0.0782 0.3438,0 0.6875,-0.1094 Q 8.25,-8.0312 8.1875,-8.0312 7.9688,-8.0938 7.7188,-8.0938 q -0.9063,0 -1.1407,0.1094 z"
             id="path1992" /></g><g
           transform="translate(341,122)"
           style="font-size:20px;font-family:'Helvetica Neue';color-interpolation:linearRGB;color-rendering:optimizeQuality;image-rendering:optimizeQuality;text-rendering:geometricPrecision"
           id="g1998"><path
             style="stroke:none"
             d="m 0.96,-3.72 v 1.36 H 11.04 V -3.72 Z M 11.04,-6.4 V -7.76 H 0.96 v 1.36 z m 3.6,-0.58 q 0,-0.52 0.01,-1.15 0.01,-0.63 0.1,-1.26 0.09,-0.63 0.26,-1.23 0.17,-0.6 0.5,-1.05 0.33,-0.45 0.83,-0.73 0.5,-0.28 1.22,-0.28 0.72,0 1.22,0.28 0.5,0.28 0.83,0.73 0.33,0.45 0.5,1.05 0.17,0.6 0.26,1.23 0.09,0.63 0.1,1.26 0.01,0.63 0.01,1.15 0,0.8 -0.05,1.79 -0.05,0.99 -0.32,1.86 -0.27,0.87 -0.87,1.47 -0.6,0.6 -1.68,0.6 -1.08,0 -1.68,-0.6 -0.6,-0.6 -0.87,-1.47 -0.27,-0.87 -0.32,-1.86 -0.05,-0.99 -0.05,-1.79 z m -1.8,0.02 q 0,0.78 0.04,1.62 0.04,0.84 0.2,1.64 0.16,0.8 0.46,1.51 0.3,0.71 0.82,1.25 0.52,0.54 1.31,0.85 0.79,0.31 1.89,0.31 1.12,0 1.9,-0.31 0.78,-0.31 1.3,-0.85 0.52,-0.54 0.82,-1.25 0.3,-0.71 0.46,-1.51 0.16,-0.8 0.2,-1.64 0.04,-0.84 0.04,-1.62 0,-0.78 -0.04,-1.62 -0.04,-0.84 -0.2,-1.64 -0.16,-0.8 -0.46,-1.52 -0.3,-0.72 -0.82,-1.26 -0.52,-0.54 -1.31,-0.86 -0.79,-0.32 -1.89,-0.32 -1.1,0 -1.89,0.32 -0.79,0.32 -1.31,0.86 -0.52,0.54 -0.82,1.26 -0.3,0.72 -0.46,1.52 -0.16,0.8 -0.2,1.64 -0.04,0.84 -0.04,1.62 z m 11.94,4.74 V 0 H 27 v -2.22 z m 4.78,-6.94 h 1.7 q -0.02,-0.64 0.13,-1.27 0.15,-0.63 0.49,-1.13 0.34,-0.5 0.87,-0.81 0.53,-0.31 1.27,-0.31 0.56,0 1.06,0.18 0.5,0.18 0.87,0.52 0.37,0.34 0.59,0.81 0.22,0.47 0.22,1.05 0,0.74 -0.23,1.3 -0.23,0.56 -0.68,1.04 -0.45,0.48 -1.13,0.95 -0.68,0.47 -1.58,1.03 -0.74,0.44 -1.42,0.94 -0.68,0.5 -1.22,1.16 -0.54,0.66 -0.89,1.55 -0.35,0.89 -0.45,2.15 h 9.26 v -1.5 h -7.28 q 0.12,-0.66 0.51,-1.17 0.39,-0.51 0.94,-0.95 0.55,-0.44 1.21,-0.83 0.66,-0.39 1.32,-0.79 0.66,-0.42 1.28,-0.88 0.62,-0.46 1.1,-1.03 0.48,-0.57 0.77,-1.29 0.29,-0.72 0.29,-1.66 0,-1 -0.35,-1.76 -0.35,-0.76 -0.95,-1.27 -0.6,-0.51 -1.41,-0.78 -0.81,-0.27 -1.73,-0.27 -1.12,0 -2,0.38 -0.88,0.38 -1.47,1.05 -0.59,0.67 -0.87,1.59 -0.28,0.92 -0.22,2 z m 20.42,-3.32 v -1.46 H 40.8 v 1.6 h 7.44 q -1.12,1.18 -2.09,2.58 -0.97,1.4 -1.71,2.97 -0.74,1.57 -1.21,3.28 Q 42.76,-1.8 42.64,0 h 1.9 q 0.1,-1.66 0.56,-3.42 0.46,-1.76 1.19,-3.42 0.73,-1.66 1.67,-3.12 0.94,-1.46 2.02,-2.52 z m 10.34,0.04 v -1.5 h -7 L 52,-6.58 53.46,-6.5 q 0.5,-0.6 1.15,-0.97 0.65,-0.37 1.49,-0.37 0.72,0 1.31,0.24 0.59,0.24 1.01,0.67 0.42,0.43 0.65,1.02 0.23,0.59 0.23,1.29 0,0.84 -0.24,1.47 -0.24,0.63 -0.65,1.05 -0.41,0.42 -0.96,0.63 -0.55,0.21 -1.15,0.21 -0.64,0 -1.17,-0.19 -0.53,-0.19 -0.92,-0.54 -0.39,-0.35 -0.62,-0.82 -0.23,-0.47 -0.27,-1.01 h -1.7 q 0.02,0.96 0.38,1.72 0.36,0.76 0.98,1.27 0.62,0.51 1.43,0.78 0.81,0.27 1.73,0.27 1.24,0 2.17,-0.39 0.93,-0.39 1.55,-1.05 0.62,-0.66 0.93,-1.51 0.31,-0.85 0.31,-1.75 0,-1.22 -0.36,-2.13 -0.36,-0.91 -0.98,-1.52 -0.62,-0.61 -1.46,-0.91 -0.84,-0.3 -1.78,-0.3 -0.72,0 -1.45,0.25 -0.73,0.25 -1.19,0.77 l -0.04,-0.04 0.76,-4.08 z M 71.68,3.94 h 1.3 q -1.42,-2.3 -2.03,-4.56 -0.61,-2.26 -0.61,-4.78 0,-2.46 0.6,-4.7 0.6,-2.24 2.04,-4.52 h -1.3 q -1.56,2.06 -2.35,4.46 -0.79,2.4 -0.79,4.76 0,1.32 0.22,2.52 0.22,1.2 0.63,2.34 0.41,1.14 0.99,2.25 0.58,1.11 1.3,2.23 z M 74,-10.34 V 0 h 1.7 v -4.6 q 0,-1 0.2,-1.77 0.2,-0.77 0.64,-1.31 0.44,-0.54 1.16,-0.82 0.72,-0.28 1.74,-0.28 v -1.8 q -1.38,-0.04 -2.28,0.56 -0.9,0.6 -1.52,1.86 H 75.6 v -2.18 z m 13.9,4.18 h -5.94 q 0.04,-0.6 0.26,-1.13 0.22,-0.53 0.6,-0.93 0.38,-0.4 0.91,-0.63 0.53,-0.23 1.19,-0.23 0.64,0 1.17,0.23 0.53,0.23 0.92,0.62 0.39,0.39 0.62,0.93 0.23,0.54 0.27,1.14 z m 1.64,2.88 h -1.68 q -0.22,1.02 -0.91,1.52 -0.69,0.5 -1.77,0.5 -0.84,0 -1.46,-0.28 -0.62,-0.28 -1.02,-0.75 -0.4,-0.47 -0.58,-1.08 -0.18,-0.61 -0.16,-1.29 h 7.74 q 0.04,-0.94 -0.17,-1.98 -0.21,-1.04 -0.76,-1.92 -0.55,-0.88 -1.46,-1.45 -0.91,-0.57 -2.29,-0.57 -1.06,0 -1.95,0.4 -0.89,0.4 -1.54,1.12 -0.65,0.72 -1.01,1.7 -0.36,0.98 -0.36,2.16 0.04,1.18 0.35,2.18 0.31,1 0.93,1.72 0.62,0.72 1.53,1.12 0.91,0.4 2.15,0.4 1.76,0 2.92,-0.88 1.16,-0.88 1.5,-2.62 z m 2.96,0.02 h -1.7 q 0.04,0.96 0.4,1.63 0.36,0.67 0.96,1.08 0.6,0.41 1.38,0.59 0.78,0.18 1.64,0.18 0.78,0 1.57,-0.15 0.79,-0.15 1.42,-0.53 0.63,-0.38 1.02,-1 0.39,-0.62 0.39,-1.56 0,-0.74 -0.29,-1.24 Q 99,-4.76 98.53,-5.09 98.06,-5.42 97.45,-5.62 96.84,-5.82 96.2,-5.96 95.6,-6.1 95,-6.23 q -0.6,-0.13 -1.08,-0.32 -0.48,-0.19 -0.79,-0.48 -0.31,-0.29 -0.31,-0.73 0,-0.4 0.2,-0.65 0.2,-0.25 0.52,-0.4 0.32,-0.15 0.71,-0.21 0.39,-0.06 0.77,-0.06 0.42,0 0.83,0.09 0.41,0.09 0.75,0.29 0.34,0.2 0.56,0.53 0.22,0.33 0.26,0.83 h 1.7 q -0.06,-0.94 -0.4,-1.57 -0.34,-0.63 -0.91,-1 -0.57,-0.37 -1.31,-0.52 -0.74,-0.15 -1.62,-0.15 -0.68,0 -1.37,0.17 -0.69,0.17 -1.24,0.52 -0.55,0.35 -0.9,0.91 -0.35,0.56 -0.35,1.34 0,1 0.5,1.56 0.5,0.56 1.25,0.87 0.75,0.31 1.63,0.48 0.88,0.17 1.63,0.38 0.75,0.21 1.25,0.55 0.5,0.34 0.5,1 0,0.48 -0.24,0.79 -0.24,0.31 -0.61,0.47 -0.37,0.16 -0.81,0.22 -0.44,0.06 -0.84,0.06 -0.52,0 -1.01,-0.1 -0.49,-0.1 -0.88,-0.33 Q 93,-1.92 92.76,-2.31 92.52,-2.7 92.5,-3.26 Z m 15.98,-3.76 h 1.76 q -0.1,-0.92 -0.48,-1.59 -0.38,-0.67 -0.97,-1.11 -0.59,-0.44 -1.36,-0.65 -0.77,-0.21 -1.65,-0.21 -1.22,0 -2.14,0.43 -0.92,0.43 -1.53,1.18 -0.61,0.75 -0.91,1.76 -0.3,1.01 -0.3,2.17 0,1.16 0.31,2.13 0.31,0.97 0.92,1.67 0.61,0.7 1.52,1.08 0.91,0.38 2.09,0.38 1.98,0 3.13,-1.04 1.15,-1.04 1.43,-2.96 h -1.74 q -0.16,1.2 -0.87,1.86 -0.71,0.66 -1.97,0.66 -0.8,0 -1.38,-0.32 -0.58,-0.32 -0.94,-0.85 -0.36,-0.53 -0.53,-1.21 -0.17,-0.68 -0.17,-1.4 0,-0.78 0.16,-1.51 0.16,-0.73 0.53,-1.29 0.37,-0.56 0.99,-0.9 0.62,-0.34 1.54,-0.34 1.08,0 1.72,0.54 0.64,0.54 0.84,1.52 z m 12.88,6.98 q -0.44,0.26 -1.22,0.26 -0.66,0 -1.05,-0.37 -0.39,-0.37 -0.39,-1.21 -0.7,0.84 -1.63,1.21 -0.93,0.37 -2.01,0.37 -0.7,0 -1.33,-0.16 -0.63,-0.16 -1.09,-0.5 -0.46,-0.34 -0.73,-0.89 -0.27,-0.55 -0.27,-1.33 0,-0.88 0.3,-1.44 0.3,-0.56 0.79,-0.91 0.49,-0.35 1.12,-0.53 0.63,-0.18 1.29,-0.3 0.7,-0.14 1.33,-0.21 0.63,-0.07 1.11,-0.2 0.48,-0.13 0.76,-0.38 0.28,-0.25 0.28,-0.73 0,-0.56 -0.21,-0.9 -0.21,-0.34 -0.54,-0.52 -0.33,-0.18 -0.74,-0.24 -0.41,-0.06 -0.81,-0.06 -1.08,0 -1.8,0.41 -0.72,0.41 -0.78,1.55 h -1.7 q 0.04,-0.96 0.4,-1.62 0.36,-0.66 0.96,-1.07 0.6,-0.41 1.37,-0.59 0.77,-0.18 1.65,-0.18 0.7,0 1.39,0.1 0.69,0.1 1.25,0.41 0.56,0.31 0.9,0.87 0.34,0.56 0.34,1.46 v 5.32 q 0,0.6 0.07,0.88 0.07,0.28 0.47,0.28 0.22,0 0.52,-0.1 z m -2.76,-5.3 q -0.32,0.24 -0.84,0.35 -0.52,0.11 -1.09,0.18 -0.57,0.07 -1.15,0.16 -0.58,0.09 -1.04,0.29 -0.46,0.2 -0.75,0.57 -0.29,0.37 -0.29,1.01 0,0.42 0.17,0.71 0.17,0.29 0.44,0.47 0.27,0.18 0.63,0.26 0.36,0.08 0.76,0.08 0.84,0 1.44,-0.23 0.6,-0.23 0.98,-0.58 0.38,-0.35 0.56,-0.76 0.18,-0.41 0.18,-0.77 z m 4.44,-8.94 V 0 h 1.7 v -14.28 z m 11.52,8.12 h -5.94 q 0.04,-0.6 0.26,-1.13 0.22,-0.53 0.6,-0.93 0.38,-0.4 0.91,-0.63 0.53,-0.23 1.19,-0.23 0.64,0 1.17,0.23 0.53,0.23 0.92,0.62 0.39,0.39 0.62,0.93 0.23,0.54 0.27,1.14 z m 1.64,2.88 h -1.68 q -0.22,1.02 -0.91,1.52 -0.69,0.5 -1.77,0.5 -0.84,0 -1.46,-0.28 -0.62,-0.28 -1.02,-0.75 -0.4,-0.47 -0.58,-1.08 -0.18,-0.61 -0.16,-1.29 h 7.74 q 0.04,-0.94 -0.17,-1.98 -0.21,-1.04 -0.76,-1.92 -0.55,-0.88 -1.46,-1.45 -0.91,-0.57 -2.29,-0.57 -1.06,0 -1.95,0.4 -0.89,0.4 -1.54,1.12 -0.65,0.72 -1.01,1.7 -0.36,0.98 -0.36,2.16 0.04,1.18 0.35,2.18 0.31,1 0.93,1.72 0.62,0.72 1.53,1.12 0.91,0.4 2.15,0.4 1.76,0 2.92,-0.88 1.16,-0.88 1.5,-2.62 z m 3.16,-1.8 q 0,-0.76 0.16,-1.48 0.16,-0.72 0.52,-1.28 0.36,-0.56 0.96,-0.9 0.6,-0.34 1.46,-0.34 0.88,0 1.5,0.33 0.62,0.33 1.01,0.87 0.39,0.54 0.57,1.25 0.18,0.71 0.18,1.47 0,0.72 -0.17,1.42 -0.17,0.7 -0.55,1.25 -0.38,0.55 -0.98,0.89 -0.6,0.34 -1.46,0.34 -0.82,0 -1.43,-0.32 -0.61,-0.32 -1,-0.86 -0.39,-0.54 -0.58,-1.23 -0.19,-0.69 -0.19,-1.41 z m 8,5.08 v -14.28 h -1.7 v 5.32 h -0.04 q -0.28,-0.46 -0.69,-0.77 -0.41,-0.31 -0.87,-0.5 -0.46,-0.19 -0.92,-0.27 -0.46,-0.08 -0.86,-0.08 -1.18,0 -2.07,0.43 -0.89,0.43 -1.48,1.16 -0.59,0.73 -0.88,1.71 -0.29,0.98 -0.29,2.08 0,1.1 0.3,2.08 0.3,0.98 0.89,1.72 0.59,0.74 1.48,1.18 0.89,0.44 2.09,0.44 1.08,0 1.98,-0.38 0.9,-0.38 1.32,-1.24 h 0.04 V 0 Z m 1.16,3.94 h 1.28 q 1.56,-2.06 2.35,-4.45 0.79,-2.39 0.79,-4.75 0,-1.32 -0.22,-2.52 -0.22,-1.2 -0.63,-2.35 -0.41,-1.15 -0.99,-2.26 -0.58,-1.11 -1.3,-2.23 h -1.28 q 1.4,2.3 2.01,4.57 0.61,2.27 0.61,4.79 0,2.44 -0.6,4.69 -0.6,2.25 -2.02,4.51 z"
             id="path1996" /></g><g
           transform="translate(311,113.5)"
           style="color-interpolation:linearRGB;stroke-width:4;stroke-linecap:butt;stroke-linejoin:round;color-rendering:optimizeQuality;image-rendering:optimizeQuality;text-rendering:geometricPrecision"
           id="g2002"><path
             style="stroke:none"
             d="m 0,-4 c -2.2091,0 -4,1.7909 -4,4 0,2.2091 1.7909,4 4,4 C 2.2091,4 4,2.2091 4,0 V 0 C 4,-2.2091 2.2091,-4 0,-4 Z"
             id="path2000" /></g><g
           style="color-interpolation:linearRGB;fill:#262626;stroke:#262626;stroke-width:0.5;stroke-linecap:butt;color-rendering:optimizeQuality;image-rendering:optimizeQuality;text-rendering:geometricPrecision"
           id="g2006"><path
             d="M 292,128 V 39 h 207 v 89 z"
             style="fill:none;fill-rule:evenodd"
             id="path2004" /></g></g></g></g></svg>
